<svg xmlns="http://www.w3.org/2000/svg" width="22" height="12" viewBox="0 0 22 12"><g><g><path fill="#222" d="M17.95 8.797a111.81 111.81 0 0 0-2.26-2.42 79.267 79.267 0 0 0-1.932-1.935 20.716 20.716 0 0 0-.397-.371 25.14 25.14 0 0 0-1.839-1.576c-2.12 2.471-4.344 4.892-6.746 7.108-.839.773-1.703 1.54-2.66 2.177-.894.594-2.185-1.488-1.26-2.104 1.713-1.138 3.16-2.639 4.585-4.101a113.484 113.484 0 0 0 4.893-5.37.514.514 0 0 1 .071-.071c.308-.27.706-.15 1.038.139C13.25 1.48 14.8 3.087 16.3 4.623a112.924 112.924 0 0 1 4.13 4.478c.28.32.561.642.838.967.328.386.648 1.112.28 1.57-.368.455-1.025.088-1.312-.25a108.199 108.199 0 0 0-2.288-2.591zm-4.219-4.38l.004.003-.004-.003z"/></g></g></svg>