<?xml version="1.0" encoding="utf-8"?>
<!-- Generator: Adobe Illustrator 24.3.0, SVG Export Plug-In . SVG Version: 6.00 Build 0)  -->
<svg version="1.1" id="Layer_1" xmlns="http://www.w3.org/2000/svg" xmlns:xlink="http://www.w3.org/1999/xlink" x="0px" y="0px"
	 viewBox="0 0 259 363" style="enable-background:new 0 0 259 363;" xml:space="preserve">
<style type="text/css">
	.st0{fill:#3CAF6E;}
	.st1{fill:#2D2D2D;}
</style>
<path class="st0" d="M55.2,198.9c17.2,9.2,35.6-9.9,26-26.8c-24.6-43.4-64.5-123.5-43.4-153c28.1-39.4,57.6,45.5,60.5,54.1
	c0.2,0.5,0.3,1,0.5,1.4c4,9.3,44.7,104.2,57.4,101.4c13.3-3,10.4-44.4,10.4-44.4s-4.4-62.2,14.8-65.1c14.1-2.2,21.8,7.5,24.9,12.9
	c1.1,1.8,1.8,3.8,2.2,5.8c2.8,13.7,15,81.3-8.8,135.1c-0.9,2.1-2,4.1-3.2,6c-3.7,5.7-12.6,27.7,29.3,72.5
	c21.4,22.9,24.6,27.9,24.5,31.8c-0.1,4.1-5.5,22.2-20.4,23.8c-6.6,0.7-13.1-2.4-17.1-7.7l-50.5-67.3c-4.4-5.9-11.7-8.8-18.9-7.5
	c-25.3,4.5-87.4,7.3-127-59.4c-1.8-3.1-2.8-6.7-2.7-10.3c0.3-9.3,5.2-23.8,37.5-5.6C52.5,197.5,53.9,198.2,55.2,198.9z"/>
<g>
	<g>
		<path class="st1" d="M30.6,34c0.4,3.5,1.2,7,3.2,9.9c2.1,3.2,6.3,4.6,9.3,1.7c5.5-5.3-1.7-14-5.4-18.1c-3.9-4.3-10.3,2.1-6.4,6.4
			c1.1,1.2,2.1,2.4,3,3.8c0.4,0.7,0.8,1.4,1.2,2.1c0.2,0.3,0.4,0.7,0.5,1.1c0.1,0.3,0.1,0.3,0-0.2c0.4-0.7,0.8-1.3,1.2-2
			c0,0,0,0.1-0.1,0.1c0.8-0.2,1.5-0.4,2.3-0.6c-0.2,0-0.4,0-0.6,0c0.8,0.2,1.5,0.4,2.3,0.6c0.7,0.4,0.5,0.8,0.1-0.1
			c-0.2-0.5-0.5-1-0.7-1.5c-0.4-1-0.7-2.1-0.8-3.2c-0.3-2.4-1.9-4.5-4.5-4.5C32.8,29.5,30.3,31.5,30.6,34L30.6,34z"/>
	</g>
</g>
<g>
	<g>
		<path class="st1" d="M71.1,28.6c1.2,0.4,2.4,1.3,3.1,2.2c0.9,1.3,1.1,2,0.9,3.6c2.3-1.3,4.5-2.6,6.8-3.9C81,30,80.6,29.7,80.3,29
			c0.2,0.4-0.2-0.8-0.1-0.2c-0.1-0.7-0.1-0.2,0.1-0.8c1.6-5.6-7.1-8-8.7-2.4c-1.4,5.1,1.2,10.2,5.8,12.6c3.2,1.7,6.5-0.5,6.8-3.9
			c0.6-6.8-4.6-12.3-10.6-14.5c-2.3-0.8-4.9,0.9-5.5,3.1C67.2,25.5,68.8,27.7,71.1,28.6L71.1,28.6z"/>
	</g>
</g>
<g>
	<g>
		<path class="st1" d="M77.1,75.8c0.2,3.3,0.6,6.5,1.2,9.8c0.6,3,1.5,5.9,4.8,6.8c3.2,0.9,6.4-1.4,7.3-4.4c0.9-3.1,0.2-6.9-0.6-9.9
			c-1.5-5.6-10.2-3.2-8.7,2.4c0.2,0.9,0.5,1.8,0.6,2.7c0,0.4,0.1,0.9,0.1,1.3c-0.2,1.3,0.1,1.2,0.9-0.4c0.8-0.2,1.5-0.4,2.3-0.6
			c0,0,0.1,0,0.1,0c0.7,0.4,1.3,0.8,2,1.2c0.4,0.9,0.6,1,0.4,0.3c-0.1-0.4-0.2-0.9-0.3-1.3c-0.2-0.9-0.3-1.8-0.5-2.7
			c-0.3-1.7-0.4-3.4-0.5-5.1C85.7,70.1,76.7,70.1,77.1,75.8L77.1,75.8z"/>
	</g>
</g>
<g>
	<g>
		<path class="st1" d="M76.9,134.8c0.5,3.6,2.2,7,4.6,9.8c1.2,1.5,2.7,2.8,4.7,3.2c2.5,0.6,5-0.7,6.2-2.9c1.7-3.2,0.7-7.6-1.3-10.5
			c-2.2-3.1-5.4-4.9-9.2-5.2c-2.4-0.2-4.5,2.2-4.5,4.5c0,2.6,2.1,4.3,4.5,4.5c0.3,0,1.3,0.6,1.8,1.2c0.2,0.3,0.4,0.8,0.5,1.1
			c0.2,0.7,0-0.4,0.1,0.4c0.1,1.4-0.6,0.4,0.5-0.6c0.7-0.4,1.3-0.8,2-1.2c-0.2,0-0.3,0.1-0.5,0.1c0.8,0,1.6,0,2.4,0
			c0.7,0.6,0.8,0.6,0.1,0c-0.3-0.3-0.6-0.6-0.8-0.9c-0.4-0.5-0.7-1.1-1-1.6c-0.7-1.3-1-2.7-1.2-4.1c-0.3-2.4-3.4-3.7-5.5-3.1
			C77.5,129.9,76.5,132.3,76.9,134.8L76.9,134.8z"/>
	</g>
</g>
<g>
	<g>
		<path class="st1" d="M103.3,205c0.7,6.5,2.6,12.6,6.6,17.8c2.4,3.2,6.7,2.7,8.2-1.1c3-7.6,1.4-16.4-3.7-22.6
			c-3.7-4.5-10,1.9-6.4,6.4c3.2,3.9,3.2,9.4,1.4,13.9c2.7-0.4,5.5-0.7,8.2-1.1c-3-3.9-4.8-8.3-5.4-13.2
			C111.7,199.3,102.7,199.2,103.3,205L103.3,205z"/>
	</g>
</g>
<g>
	<g>
		<path class="st1" d="M92.7,256.8c-0.1,4.6,0.8,9.1,2.9,13.2c1.8,3.5,5.5,8.3,10,7c4.1-1.2,5.2-6.3,4-9.9c-0.7-2.1-2.2-3.5-3.5-5.2
			c-1.3-1.7-2.2-3.6-2.8-5.6c-1.8-5.5-10.4-3.1-8.7,2.4c0.7,2.2,1.6,4.5,2.8,6.5c0.9,1.5,2.4,3.9,3.7,5c0,1.6,1.4,1,4.2-1.8
			c-0.4-0.4-0.7-0.8-1-1.2c-0.6-0.9-1.1-1.9-1.5-2.9c-0.9-2.4-1.2-4.9-1.1-7.4C101.8,251,92.8,251,92.7,256.8L92.7,256.8z"/>
	</g>
</g>
<g>
	<g>
		<path class="st1" d="M58.2,208.8c-1.9,3-3.5,6.4-2.5,10c1,3.6,3.8,5.8,7.4,6.2c2,0.2,3.8-1.5,4.3-3.3c0.5-1.7,0.7-3.5,0.5-5.2
			c-0.2-2.4-1.9-4.5-4.5-4.5c-2.2,0-4.8,2.1-4.5,4.5c0.1,1.1,0.1,1.8-0.2,2.8c1.4-1.1,2.9-2.2,4.3-3.3c1.2,0.1,0.7,0.3,1.2,0.5
			c0.1,0.3,0.1,0.2-0.1-0.3c0,0.2,0.1,0.3,0.1,0.2c0.2-1.1,1-2.1,1.6-3c1.3-2,0.4-5-1.6-6.2C62.2,206,59.5,206.8,58.2,208.8
			L58.2,208.8z"/>
	</g>
</g>
<g>
	<g>
		<path class="st1" d="M22,199.8c-0.8-0.2-1.8-0.4-2.2-1.2c0.1,0.2-0.1-0.6-0.1-0.6c0-0.2,0-0.4,0-0.6c0.6,0.8-0.2,1.4-2.4,1.8
			c-0.8-0.2-1.5-0.4-2.3-0.6c-1-1-0.4-2,1.8-2.9c0.8,0.2,1.5,0.4,2.3,0.6c0.5,0.2,0.3,0.5-0.1-0.2c-0.3-0.7-0.7-1.3-1-2
			c-0.5-1.2-1-2.4-1.3-3.6c-1.8-5.5-10.5-3.1-8.7,2.4c1.4,4.4,3.9,12.6,9.9,11.7c6.2-0.9,7.3-9.8,2.6-13.2c-5.1-3.7-9.9,1.5-9.9,6.6
			c0,5.5,3.9,9,8.9,10.4C25.2,210.1,27.5,201.4,22,199.8L22,199.8z"/>
	</g>
</g>
<g>
	<g>
		<path class="st1" d="M156.8,192c2,1.9,4,3.7,6,5.6c1.7,1.6,4.7,1.8,6.4,0c1.6-1.7,1.9-4.7,0-6.4c-2-1.9-4-3.7-6-5.6
			c-1.7-1.6-4.7-1.8-6.4,0C155.2,187.4,155,190.3,156.8,192L156.8,192z"/>
	</g>
</g>
<g>
	<g>
		<path class="st1" d="M186.6,206.9c1.8,7.9,11,13.2,18.5,9.2c4.3-2.3,6.2-7.8,2.4-11.4c-3.5-3.4-9.8-3.2-14.3-2.5
			c-2.4,0.4-3.7,3.4-3.1,5.5c0.7,2.6,3.1,3.5,5.5,3.1c1.1-0.2,2.4-0.2,3.6,0c0.6,0.1,1.1,0.2,1.6,0.4c1.4,0.6,1.3,0.2-0.2-1.3
			c0.2-0.8,0.4-1.5,0.6-2.3c-0.5,1.2-2,1-3.1,0.6c-1.6-0.7-2.4-2-2.8-3.7C193.9,198.9,185.2,201.2,186.6,206.9L186.6,206.9z"/>
	</g>
</g>
<g>
	<g>
		<path class="st1" d="M206.7,124.4c-4.3,2.1-4.9,7.9-2.9,11.7c2,3.9,6.5,7.3,11.1,6.3c4.3-0.9,7.2-5.4,6-9.7
			c-1.3-4.6-7.4-6.6-10.8-3c-4,4.2,2.4,10.6,6.4,6.4c-2.4,2.5-5.6-1.2-3.8-2.4c0.9-0.6,1.2,0.4,0.4-0.4c-0.6-0.6-1.1-1-1.5-1.8
			c0,0.1-0.2,0.5-0.3,0.6c2.2-1.1,2.8-4.2,1.6-6.2C211.6,123.8,208.9,123.3,206.7,124.4L206.7,124.4z"/>
	</g>
</g>
<g>
	<g>
		<path class="st1" d="M189.6,67.8c-1.7,3.3-1.4,7.2,1.1,9.9c2.1,2.4,6,3.4,9,2.2c1.7-0.7,3.6-2.3,3.3-4.3c-0.3-2.7-1.2-5-3.1-7
			c-1.6-1.7-4.7-1.8-6.4,0c-1.7,1.8-1.8,4.6,0,6.4c0.3,0.3,0.2,0.2,0-0.1c0.2,0.2,0.3,0.5,0.5,0.8c0.3,0.4-0.1-0.6-0.1-0.1
			c0,0.2,0.2,1.1,0.1,0c1.1-1.4,2.2-2.9,3.3-4.3c-0.2,0.1-0.7,0.2-0.9,0.3c0.6-0.1,0.8-0.1,0.4-0.1c-0.4,0-0.2,0,0.4,0.1
			c-0.1,0-0.2-0.1-0.3-0.1c-0.4-0.1-0.4-0.1,0,0c0.4,0.2,0.3,0.1,0-0.1c0.4,0.4,0.6,0.4,0.3,0.2c-0.4-0.3,0.4,0.8,0.1,0
			c0.6,1.3,0.1-0.1,0.1-0.1c0,0.2,0.1,0.4,0.1,0.6c0-0.5,0-0.4-0.1,0.3c0.2-0.9-0.5,0.8,0-0.1c1.1-2.1,0.6-5-1.6-6.2
			C193.7,65.1,190.8,65.6,189.6,67.8L189.6,67.8z"/>
	</g>
</g>
<g>
	<g>
		<path class="st1" d="M172.2,94.4c-0.6,4-0.5,7.9,0.7,11.8c0.8,2.7,4.1,4.3,6.6,2.7c2.1-1.3,3.5-3.2,4.2-5.6c1.6-5.6-7-7.9-8.7-2.4
			c0,0.1-0.5,0.5,0,0.2c2.2,0.9,4.4,1.8,6.6,2.7c-0.7-2.2-1.1-4.6-0.7-7c0.4-2.4-0.6-4.8-3.1-5.5C175.6,90.7,172.6,92,172.2,94.4
			L172.2,94.4z"/>
	</g>
</g>
</svg>
