<?xml version="1.0" encoding="utf-8"?>
<!-- Generator: Adobe Illustrator 24.3.0, SVG Export Plug-In . SVG Version: 6.00 Build 0)  -->
<svg version="1.1" id="Layer_1" xmlns="http://www.w3.org/2000/svg" xmlns:xlink="http://www.w3.org/1999/xlink" x="0px" y="0px"
	 viewBox="0 0 283.5 283.5" style="enable-background:new 0 0 283.5 283.5;" xml:space="preserve">
<style type="text/css">
	.st0{fill:#163D16;}
</style>
<path class="st0" d="M30.2,149.8c1.2-2.8,2-6,3.7-8.5c6.5-8.9,17.2-10.6,26.9-4.4c18.6,11.9,37.2,23.8,55.8,35.6
	c7.6,4.8,15.3,9.7,22.8,14.6c1.4,0.9,2.5,1,4,0c26.1-16.7,52.3-33.4,78.4-50.2c5.9-3.7,12-5,18.6-2.5c6.6,2.6,10.7,7.6,11.9,14.6
	c1.2,7-1,13-6.4,17.7c-1.1,1-2.4,1.9-3.6,2.7c-29.4,18.8-59,37.6-88.4,56.6c-8.4,5.4-16.3,5.3-24.7,0c-28.8-18.5-57.5-36.8-86.2-55
	c-6.4-4.1-11.5-8.7-12.7-16.5C30.2,153,30.2,151.3,30.2,149.8z"/>
<path class="st0" d="M30.2,85.2c1.2-2.9,1.9-6,3.6-8.5c6.5-9,17.2-10.7,26.8-4.6c21.7,13.8,43.4,27.8,65.1,41.6
	c4.6,2.9,9.2,5.8,13.7,8.8c1.4,0.9,2.4,0.9,3.8,0c26.1-16.8,52.4-33.5,78.6-50.2c7-4.5,14.2-5.1,21.5-0.9
	c10.9,6.2,12.3,22.6,2.7,30.6c-1.2,1-2.5,2-3.8,2.8c-29.7,19-59.3,37.9-89,56.9c-7.9,5.1-15.6,5.2-23.5,0.1
	c-28.9-18.5-57.7-37-86.7-55.3c-6.5-4.1-11.5-8.7-12.8-16.5C30.2,88.3,30.2,86.8,30.2,85.2z"/>
</svg>
