<?xml version="1.0" encoding="utf-8"?>
<!-- Generator: Adobe Illustrator 24.3.0, SVG Export Plug-In . SVG Version: 6.00 Build 0)  -->
<svg version="1.1" id="Layer_1" xmlns="http://www.w3.org/2000/svg" xmlns:xlink="http://www.w3.org/1999/xlink" x="0px" y="0px"
	 viewBox="0 0 269 271" style="enable-background:new 0 0 269 271;" xml:space="preserve">
<style type="text/css">
	.st0{fill:#EAEAEA;}
	.st1{fill:#E29820;}
</style>
<path class="st0" d="M237.7,72.5c-18.7-3.3-38.4,0.1-54,11.4c-1,0.7-2,1.5-2.9,2.2c1.7-4.7,3.1-9.6,4-14.6c1.8-10,3-20.6,0.8-30.6
	c-2.7-13-12.3-23.2-24.7-27.4c-12.6-4.2-28.3-0.6-37.4,9.2c-7.5,8-11.1,19.3-13,29.9c-3.6,20.8-0.9,40.9,2.3,61.5
	c0.1,0.8,0.3,1.5,0.6,2.3c-8.7-7.7-18.8-14.1-28.7-20.1c-9.6-5.8-19.8-10.5-31-11.1C40.2,84.5,27.4,90.7,20,102
	c-6.6,10.3-7.2,24.1-3.3,35.5c2.2,6.2,5.3,11.7,10.2,16.3c6.4,6,14,7.9,22.5,8.9c8.9,1.1,17.8,1.9,26.8,2.6c1.7,0.1,3.3,0.3,5,0.4
	c-0.5,0.6-1,1.2-1.6,1.8c-2.7,3-5.4,5.8-8.2,8.7c-6.2,6.7-12.5,13.8-16.9,21.8c-4.7,8.7-7.8,18.2-7.9,28.1
	c-0.1,12.5,5,26.9,16.1,33.7c23.2,14.2,43.6-11.6,54.2-29.1c4.6-7.5,8.7-15.3,12.5-23.2c1.4-2.8,2.8-5.7,4.1-8.6
	c3.9,10.3,7.9,20.5,12.8,30.2c9.8,19.8,35,36.9,57,24.9c22.6-12.3,20.1-42.3,9.5-61.6c-6.6-12.2-16.4-23.3-27-32.4
	c4,0,8.2-0.9,12.2-3c14.3-7.3,27.8-15.9,40.5-25.7c8.8-6.8,18.2-13.7,21.5-24.9C264.8,90.1,253.6,75.3,237.7,72.5z M226.1,118
	c0.3,0.1,0.7,0.2,1,0.3c-0.2,0-0.4-0.1-0.6-0.1C226.4,118.2,226.3,118.1,226.1,118z M198.9,136.9c0.1-0.1,0.1-0.2,0.2-0.3
	c-0.1,0.2-0.1,0.4-0.2,0.5C198.8,137.1,198.8,137,198.9,136.9z M190,210.4L190,210.4C189.9,210.4,189.9,210.4,190,210.4z
	 M190.8,211.1c0.1,0.1,0.2,0.2,0.3,0.3l0,0C190.9,211.3,190.8,211.2,190.8,211.1z M141.9,148.8c-4.4,1.4-8.6,4.2-11.8,7.9
	c-0.3-0.2-0.5-0.5-0.8-0.7c1.7-3.3,2.8-6.9,2.6-10.6c-0.5-6.7-2.9-11.4-6.7-16.4c4.9,2.3,11.4,3.2,16.4,1.5c1.1-0.4,2.1-0.8,3.1-1.2
	c3-0.1,5.9-0.8,8.6-2.1c-0.4,2.1-0.8,4.3-0.9,6.4c-0.4,5.4,1.8,10.7,5.4,14.9c-0.8,0.2-1.5,0.4-2.3,0.7
	C151.1,147.9,146,147.5,141.9,148.8z M156.7,93c0.3,2.5,0.4,3,0.1,1.3C156.8,93.8,156.8,93.4,156.7,93z M94.8,119.3
	c-0.4,0.1-0.8,0.2-1.3,0.3c-0.1,0-0.3,0-0.5,0C94,119.4,94.6,119.3,94.8,119.3z M61,122.2L61,122.2c-0.7-1-0.8-1.2-0.6-1
	C60.6,121.5,60.8,121.9,61,122.2z M52.4,116.2L52.4,116.2C50.5,116,51.3,116,52.4,116.2z M71.5,214.5L71.5,214.5
	c-0.4,0.3-0.9,0.9-1.5,1.6C70.2,215.6,70.8,214.7,71.5,214.5z M66.4,219.9L66.4,219.9c-0.1,0.2-0.3,0.3-0.4,0.3
	C66.1,220.1,66.3,220,66.4,219.9z M191.3,211.7C191.3,211.7,191.4,211.7,191.3,211.7c0.4,0.3,0.6,0.6,0.6,0.7
	C191.9,212.3,191.7,212,191.3,211.7z M189.8,210.1c-0.2-0.2-0.4-0.4-0.6-0.6c0-0.1-0.1-0.2-0.1-0.2
	C189.3,209.5,189.6,209.8,189.8,210.1z M226.9,118.4L226.9,118.4c0.3,0,0.4,0,0.6,0C228.7,119,229.3,119.7,226.9,118.4z"/>
<g>
	<g>
		<path class="st1" d="M136.4,119.8c7.8-3.4-5.9,2.5-4.5,1.8c-1.1,0.5-2.1,1-3.1,1.6c-4.4,2.7-7.8,6.3-10.4,10.7
			c-6.6,11.2-2.4,26.6,8.7,33.1c19.3,11.4,38.5-7.3,44-24.7c3.1-9.9-3.7-22-13.8-24.3c-10.8-2.5-21,3.2-24.3,13.8
			c-0.7,2-0.3,1.3,0.9-1.8c-0.2,0.7-0.6,1.2-0.9,1.8c-0.9,1.6-3.1,3,0.7-0.6c-0.7,0.7-1.5,1.6-2.1,2.3c-1.6,1.3-1.1,1,1.5-1.2
			c3.1-1.1,3.7-1.4,1.7-0.9c1.7-0.2,3.5-0.5,5.3-0.7c-0.3,0-0.7,0-1.1,0c1.7,0.2,3.5,0.5,5.3,0.7c3,0.9,5.2,3,6.5,5.9
			c2.9,5.2,4,6.4,3.4,3.7c0.2,1.7,0.5,3.5,0.7,5.3c0-0.2,0-0.6,0-0.8c-0.2,1.7-0.5,3.5-0.7,5.3c0.3-1.3,0.2-1.2-0.5,0.7
			c-0.5,1.5-1.3,2.9-2.4,4c-0.9,0.8-3.6,2.9-1,1.1c1.9-1.3-4.6,1.8-0.9,0.3c2.3-0.9,4.6-1.9,6.9-2.9c4.2-1.8,7.9-7.6,9.1-11.8
			c1.3-4.7,0.7-11-2-15.3c-2.7-4.2-6.8-7.9-11.8-9.1C146.1,116.6,141.6,117.7,136.4,119.8L136.4,119.8z"/>
	</g>
</g>
</svg>
