<?xml version="1.0" encoding="utf-8"?>
<!-- Generator: Adobe Illustrator 24.3.0, SVG Export Plug-In . SVG Version: 6.00 Build 0)  -->
<svg version="1.1" id="Layer_1" xmlns="http://www.w3.org/2000/svg" xmlns:xlink="http://www.w3.org/1999/xlink" x="0px" y="0px"
	 viewBox="0 0 269 271" style="enable-background:new 0 0 269 271;" xml:space="preserve">
<style type="text/css">
	.st0{fill:#EAE9E4;}
	.st1{fill:#E3E473;}
</style>
<g>
	<g>
		<g>
			<path class="st0" d="M155.2,98.8c-0.4-2.4-2-6.8-1.4-9.1c0.4,2.9,0.5,3.5,0.2,1.7c-0.1-0.9-0.2-1.8-0.3-2.7
				c-0.2-1.5-0.3-3-0.5-4.6c-0.6-6.3-0.9-12.7-0.5-19.1c0.1-1.2,0.2-2.4,0.3-3.6c0.5-6-1.2,4.9,0.2-1c0.7-3,1.3-6,2.3-8.9
				c0.4-1.2,2.9-5.1,0.7-2.1c-1.6,2.1-2.6,3.9-4.9,5.4c1.7-0.9,1.6-0.9-0.2,0c-1.4,0.8-2.9,1.2-4.5,1.1c-1.1-0.2-2.1-0.4-3.2-0.6
				c1.9,0.6,1.8,0.5-0.2-0.2c-1.2-0.3-2.2-0.9-3-1.7c-1.6-1.4-1.8-1.5-0.6-0.3c-0.6-0.8-1.2-1.5-1.8-2.3c-1.1-3.2-1.4-4-0.9-2.3
				c0.8,4.3-0.4-0.2,0-1.4c-0.3,0.8,0.1,2.6,0.1,3.6c0,1.3-0.1,2.6-0.2,3.9c-0.1,0.8-0.1,1.6-0.2,2.4c-0.2,1.8-0.1,1.1,0.3-2.3
				c0.4,0.1-1.5,7.1-1.7,7.8c-0.7,2.6-1.6,5.2-2.5,7.7c-1.8,5.1,1.6-3.1,0.1-0.3c-0.6,1.2-1.2,2.5-1.8,3.8c-1.4,2.8-3.1,5.5-4.8,8.2
				c-0.8,1.2-1.6,2.4-2.5,3.6c-2.8,4,2.7-3.2-0.7,1c-4.1,5-6.9,9.9-6.9,16.6c0,5.8,2.6,12.6,6.9,16.6c8.6,7.9,25,10.2,33.2,0
				c12.1-14.9,22.2-31.8,25.7-51c1.8-10,3-20.6,0.8-30.6c-2.7-13-12.3-23.2-24.7-27.4c-12.6-4.2-28.3-0.6-37.4,9.2
				c-7.5,8-11.1,19.3-13,29.9c-3.6,20.8-0.9,40.9,2.3,61.5c0.8,5.4,6.3,11.4,10.8,14c5,2.9,12.5,4.2,18.1,2.4
				C152.1,123.4,157.2,111.9,155.2,98.8L155.2,98.8z"/>
		</g>
	</g>
	<g>
		<g>
			<path class="st0" d="M196.4,131.2c0.2,1.4-0.1,2.7-0.8,3.8c-0.8,1.6-0.7,1.5,0.1-0.3c0.5-0.9,0.9-1.9,1.4-2.8
				c0.7-1.4,1.5-2.7,2.4-4c0.4-0.7,3-4.5,0.8-1.4c-2.1,3.1,0.5-0.5,1.1-1.1c0.8-0.9,1.7-1.8,2.6-2.7c0.2-0.2,2.8-2.4,2.8-2.5
				c-2.6,2-3.3,2.4-1.9,1.4c0.6-0.4,1.2-0.9,1.8-1.3c1.9-1.2,4.6-3.4,6.9-3.8c-0.8,0.4-1.6,0.7-2.4,1.1c0.8-0.3,1.6-0.6,2.4-0.8
				c1.4-0.4,2.8-0.7,4.1-1.1c5.2-1.4-4.9-0.1,0.5-0.1c1.4,0,2.8-0.1,4.2-0.1c0.6,0,1.1,0,1.7,0.1c1.8,0.1,1.1,0-2-0.4
				c2.1-0.7,7,3.4-0.2-0.8c-2.8-2.8-5.6-5.6-8.4-8.4c0.2,0.3,0.4,0.6,0.7,0.9c-1.1-3.9-2.1-7.9-3.2-11.9c0.8-2.8,1.6-5.6,2.5-8.4
				c0.6-0.8,1.2-1.5,1.9-2.3c-0.7,0.3-2,2-2.6,2.6c-0.7,0.7-1.5,1.3-2.3,1.9c-0.5,0.4-3.5,2.4-1,0.9c2.9-1.7-1.3,1-1.9,1.4
				c-1,0.7-1.9,1.4-2.9,2.1c-2.2,1.6-4.4,3.1-6.6,4.6c-8.6,5.8-17.5,11-26.7,15.7c-11,5.6-15,21.9-8.4,32.2
				c7.2,11.2,20.4,14.4,32.1,8.4c14.3-7.3,27.8-15.9,40.5-25.7c8.8-6.8,18.2-13.7,21.5-24.9c4.8-16.2-6.4-31-22.3-33.8
				c-18.7-3.3-38.4,0.1-54,11.4c-16.1,11.8-29.6,29.2-31.3,49.7c-1,12.3,11.5,24,23.5,23.5C186.5,154,195.3,144.3,196.4,131.2
				L196.4,131.2z"/>
		</g>
	</g>
	<g>
		<g>
			<path class="st0" d="M122.6,174.9c6.7,17,12.6,34.9,20.8,51.3c9.8,19.8,35,36.9,57,24.9c22.6-12.3,20.1-42.3,9.5-61.6
				C202,175,189.7,162,176.7,152c-5.2-4-9.8-6.9-16.6-6.9c-5.8,0-12.6,2.6-16.6,6.9c-7.7,8.4-10.4,25.2,0,33.2
				c4.6,3.5,8.9,7.3,12.9,11.4c2,2.1,4,4.2,5.8,6.4c0.9,1.1,1.8,2.2,2.8,3.3c1.8,2.2-2.4-3.6,0,0.1c1.5,2.3,3.1,4.5,4.4,6.9
				c0.4,0.7,2.4,5,0.9,1.6c-1.4-3.5,0.4,1.4,0.5,1.7c0.2,0.8,1.3,5.4,0.5,1.5c-0.9-4.5-0.2,1.6-0.2,1.5c0.1-1.1,0.3-2.1,0.4-3.2
				c-0.6,2-0.5,2,0.2,0.1c3.9-5.2,3.4-7.8,14.1-8.6c-3.2,0.2,0.8,0.1,1.9,0.4c-1.9-0.6-1.9-0.5,0.1,0.2c1.9,0.9,1.9,0.8,0.2-0.1
				c-2.5-2.3,0.9,0.6,1.1,1.1c-0.1-0.2-3-3.1-3.2-3.2c1.1,0.3,2.5,3.8,0.7,0.8c-0.9-1.5-1.8-3-2.6-4.6c-0.1-0.3-1.6-3.1-1.5-3.2
				c1.1,2.7,1.3,3.2,0.7,1.6c-0.2-0.5-0.4-1.1-0.6-1.6c-4.9-12.3-9.7-24.6-14.6-36.9c-2.3-5.9-5.1-10.7-10.8-14
				c-5-2.9-12.5-4.2-18.1-2.4C127.9,149.5,117.7,162.6,122.6,174.9L122.6,174.9z"/>
		</g>
	</g>
	<g>
		<g>
			<path class="st0" d="M84.2,161.8c-0.6,0.9-1.3,1.8-1.9,2.7c2-2.5,2.2-2.8,0.6-0.8c-1.1,1.3-2.2,2.6-3.3,3.8
				c-2.7,3-5.4,5.8-8.2,8.7c-6.2,6.7-12.5,13.8-16.9,21.8c-4.7,8.7-7.8,18.2-7.9,28.1c-0.1,12.5,5,26.9,16.1,33.7
				c23.2,14.2,43.6-11.6,54.2-29.1c4.6-7.5,8.7-15.3,12.5-23.2c4.9-10.2,10.5-21,9.5-32.6c-1-12.2-10.1-24.1-23.5-23.5
				c-11.9,0.5-24.6,10.4-23.5,23.5c0.4,5.1,1.3-2.6,0.5,0c-0.4,1.3-0.5,3.3-1.4,4.4c0.3-0.7,0.6-1.5,0.9-2.2
				c-0.4,0.9-0.8,1.7-1.2,2.6c-0.7,1.4-1.3,2.8-2,4.2c-2.7,5.6-5.6,11.2-8.7,16.7c-2.7,4.8-5.5,9.6-8.7,14.1
				c-2.4,3.4-1.1,0.1,0.3-0.3c-0.7,0.2-2.1,2.4-2.7,3c-0.5,0.5-2.2,2.7-2.9,2.8c0.7-0.6,1.4-1.1,2.2-1.7c-3.9,2.4-1.5,1.9,7.2-1.6
				c3.9,1.1,7.9,2.1,11.9,3.2c5.4,6.6,7.2,8.4,5.5,5.3c-0.8-1.6-0.5-0.9,0.9,2.1c0.7-0.3-2.6-5.5-0.5-1.2c0.3,2.1,0.3,2.2,0.2,0.2
				c0-0.5,0-1,0.1-1.5c-0.6,3.5-0.7,4.3-0.3,2.5c0.1-0.8,0.3-1.5,0.5-2.2c0.2-0.8,0.4-1.5,0.7-2.2c0.6-1.7,0.3-1-0.9,1.9
				c-0.2-0.8,1.5-3,1.8-3.6c0.7-1.2,1.3-2.3,2.1-3.4c0.4-0.7,0.9-1.3,1.4-2c1-1.4,0.6-0.9-1.1,1.5c0.8-2.2,4-4.7,5.6-6.4
				c2.3-2.5,4.7-5,7-7.5c5.2-5.6,10.1-11.5,14.4-17.8c7-10.2,2.2-26.5-8.4-32.1C104.5,147.1,91.7,151,84.2,161.8L84.2,161.8z"/>
		</g>
	</g>
	<g>
		<g>
			<path class="st0" d="M122.1,125.8c-10.6-13.7-25.6-23.4-40.3-32.3C72.2,87.7,62,83,50.8,82.4c-13.4-0.7-26.3,5.4-33.7,16.8
				c-6.6,10.3-7.2,24.1-3.3,35.5c2.2,6.2,5.3,11.7,10.2,16.3c6.4,6,14,7.9,22.5,8.9c8.9,1.1,17.8,1.9,26.8,2.6
				c4.5,0.4,9.1,0.7,13.6,1c7.9,0.5,14.5-0.9,21.8-4.2c11.2-5.1,14.8-22.2,8.4-32.1c-7.5-11.6-20.2-13.9-32.2-8.4
				c7.9-3.6,9.2-1.9,4.7-2c-1.6-0.1-3.1-0.2-4.7-0.3c-3.2-0.2-6.5-0.5-9.7-0.7c-6.5-0.5-12.9-1.1-19.4-1.8c-1.9-0.2-3.9-0.4-5.8-0.6
				c-3.5-0.4-0.4-0.2,1.2,0.2c-2.7-0.8-2.1-0.3,1.8,1.5c2.3,0.8,4.1,2.2,5.2,4.3c-2.1-2.9,1,0.7,0.5,1.4c-0.2-0.8-0.4-1.5-0.6-2.3
				c-0.4-1.8-0.2-1,0.3,2.2c-0.3-3.1-0.2,0-0.4,1.5c0.6-2,0.6-2-0.1-0.1c-0.4,1.5-1.2,2.9-2.4,4c-0.9,0.7-1.7,1.4-2.6,2.1
				c-3.5,1.3-4.3,1.6-2.6,1.1c2.6-0.5-6.6,0.6-1.1,0.1c4.2-0.3-2.8-1.1-0.5,0c1.2,0.5,5.4,1.3,0-0.4c1.4,0.4,2.7,1.3,4,2
				c4.9,2.6,9.7,5.7,14.4,8.7c2.3,1.4,4.5,2.9,6.7,4.5c1,0.7,2.5,1.4,3.3,2.4c-1.5-1.9-2.8-2.3-0.3-0.1c4.5,3.8,8.6,8,12.2,12.7
				c3.4,4.4,11.3,6.9,16.6,6.9c5.8,0,12.6-2.6,16.6-6.9c4.1-4.5,7.2-10.4,6.9-16.6C128.6,135.7,126.1,131,122.1,125.8L122.1,125.8z"
				/>
		</g>
	</g>
</g>
<g>
	<g>
		<path class="st1" d="M130.6,113.3c9.5-4.1-7.1,3-5.4,2.2c-1.3,0.6-2.5,1.2-3.7,1.9c-5.3,3.3-9.5,7.6-12.6,13
			c-8,13.6-2.9,32.3,10.6,40.2c23.4,13.8,46.7-8.8,53.4-30c3.8-12-4.5-26.7-16.8-29.5c-13.1-3-25.5,3.9-29.5,16.8
			c-0.8,2.4-0.4,1.6,1.1-2.2c-0.3,0.8-0.7,1.5-1.1,2.2c-1.1,2-3.7,3.6,0.9-0.7c-0.9,0.9-1.8,1.9-2.6,2.8c-1.9,1.6-1.3,1.2,1.8-1.4
			c3.8-1.3,4.5-1.7,2.1-1.1c2.1-0.3,4.2-0.6,6.4-0.9c-0.4,0-0.8,0-1.3,0c2.1,0.3,4.2,0.6,6.4,0.9c3.6,1.1,6.3,3.6,7.9,7.2
			c3.5,6.3,4.9,7.8,4.1,4.5c0.3,2.1,0.6,4.2,0.9,6.4c0-0.3,0-0.7,0-1c-0.3,2.1-0.6,4.2-0.9,6.4c0.4-1.6,0.2-1.4-0.6,0.8
			c-0.6,1.8-1.6,3.5-2.9,4.9c-1.1,1-4.4,3.5-1.2,1.3c2.3-1.6-5.6,2.2-1.1,0.4c2.8-1.1,5.6-2.3,8.4-3.5c5.1-2.2,9.6-9.2,11-14.3
			c1.6-5.7,0.9-13.4-2.4-18.5c-3.3-5.1-8.2-9.6-14.3-11C142.4,109.4,136.9,110.7,130.6,113.3L130.6,113.3z"/>
	</g>
</g>
</svg>
