<?xml version="1.0" encoding="utf-8"?>
<!-- Generator: Adobe Illustrator 24.3.0, SVG Export Plug-In . SVG Version: 6.00 Build 0)  -->
<svg version="1.1" id="Layer_1" xmlns="http://www.w3.org/2000/svg" xmlns:xlink="http://www.w3.org/1999/xlink" x="0px" y="0px"
	 viewBox="0 0 595.28 568.89" style="enable-background:new 0 0 595.28 568.89;" xml:space="preserve">
<style type="text/css">
	.st0{clip-path:url(#SVGID_2_);}
	.st1{fill:#27AB67;}
	.st2{fill:#06864A;}
	.st3{clip-path:url(#SVGID_4_);fill:#1B4F67;}
	.st4{clip-path:url(#SVGID_4_);}
	.st5{fill:#0E3240;}
</style>
<g>
	<g>
		<g>
			<defs>
				<path id="SVGID_1_" d="M405.13,296.79v-60.72c0,0,131.77-111.75,110.46-146.63L513,85.57c0,0,26.48-62.01-68.47-44.57
					s-101.6,21.02-134.36,37.46c-31.39,15.76-123.37,67.18-123.37,67.18S91.85,92.67,67.95,106.88c0,0-23.9,18.73,8.4,51.03
					s47.8,47.15,47.8,47.15s25.19,14.21,23.9,68.47c-1.29,54.26,0,31.65,0,31.65l46.51,100.12l142.11,4.52L405.13,296.79z"/>
			</defs>
			<clipPath id="SVGID_2_">
				<use xlink:href="#SVGID_1_"  style="overflow:visible;"/>
			</clipPath>
			<g class="st0">
				<path class="st1" d="M405.13,296.79v-60.72c0,0,131.77-111.75,110.46-146.63L513,85.57c0,0,26.91-59.47-68.47-44.57
					c-57.75,9.02-103.5,21.23-134.36,37.46C279.1,94.81,186.8,145.64,186.8,145.64S91.85,92.67,67.95,106.88
					c0,0-23.9,18.73,8.4,51.03s47.8,47.15,47.8,47.15s25.19,14.21,23.9,68.47c-1.29,54.26,0,31.65,0,31.65l46.51,100.12l142.11,4.52
					L405.13,296.79z"/>
			</g>
			<g class="st0">
				<path class="st2" d="M266.26,167.78c25.59-3.28,51.91,9.51,64.82,31.92c2.14,3.71,7.9,0.36,5.75-3.36
					c-13.97-24.24-42.76-38.78-70.58-35.22C262.07,161.66,262.02,168.33,266.26,167.78L266.26,167.78z"/>
			</g>
			<g class="st0">
				<path class="st2" d="M412.13,140.34c14.8-12.85,30.46-24.68,46.89-35.38c8.14-5.3,16.44-10.46,25-15.05
					c8.02-4.3,16.61-7.04,25.42-3.39c8.65,3.58,15.28,11.09,21.33,17.95c2.84,3.22,7.54-1.51,4.71-4.71
					c-5.89-6.68-12.2-13.47-20.13-17.75c-8.49-4.58-17.82-5.03-26.8-1.54c-9.5,3.7-18.32,9.53-26.93,14.93
					c-8.99,5.64-17.77,11.62-26.32,17.91c-9.59,7.06-18.89,14.51-27.88,22.32C404.18,138.45,408.91,143.14,412.13,140.34
					L412.13,140.34z"/>
			</g>
			<g class="st0">
				<path class="st2" d="M322.44,110.32c34.34,1.77,67.37,16.9,91.27,41.59c2.99,3.09,7.69-1.63,4.71-4.71
					c-25.14-25.97-59.9-41.68-95.98-43.54C318.16,103.43,318.17,110.1,322.44,110.32L322.44,110.32z"/>
			</g>
			<g class="st0">
				<path class="st2" d="M382.19,122.71c30.69-34.88,72.25-59.52,117.46-70.14c12.65-2.97,25.51-4.8,38.49-5.47
					c4.27-0.22,4.29-6.88,0-6.66c-47.59,2.47-93.73,20.17-131.15,49.61c-10.67,8.39-20.55,17.76-29.52,27.95
					C374.65,121.21,379.35,125.94,382.19,122.71L382.19,122.71z"/>
			</g>
			<g class="st0">
				<path class="st2" d="M350.09,110.16c4.12-9.29,12.09-17.11,19.72-23.63c7.69-6.57,16.21-12.1,24.94-17.18
					c18.71-10.89,38.34-21.13,58.67-28.64c11.74-4.34,23.91-7.68,36.36-9.14c4.21-0.49,4.26-7.16,0-6.66
					c-23.14,2.72-44.87,11.17-65.68,21.35c-19.45,9.52-39.27,19.6-56.2,33.24c-9.07,7.31-18.77,16.48-23.57,27.3
					C342.62,110.69,348.36,114.08,350.09,110.16L350.09,110.16z"/>
			</g>
		</g>
	</g>
	<g>
		<path class="st2" d="M264.32,262.74c7.54-0.72,15.04-0.17,22.36,1.72c1.74,0.45,3.62-0.57,4.1-2.33c0.47-1.72-0.58-3.65-2.33-4.1
			c-7.86-2.03-16.05-2.73-24.13-1.96c-1.79,0.17-3.33,1.41-3.33,3.33C260.99,261.08,262.52,262.91,264.32,262.74L264.32,262.74z"/>
	</g>
</g>
<g>
	<defs>
		<path id="SVGID_3_" d="M149.07,303.17c0,0,140.98,40.69,262.57-8.72l2.42,106.58c0,0,9.2-16.47,38.76-15.5
			s39.73,41.66,39.73,41.66s5.33,25.68-6.78,42.63c0,0,76.54-0.97,51.35,82.36l-5.93,16.71H83.67c0,0-69.44-63.22-10.98-117.16
			c0,0,20.02-10.98,33.59,3.23c0,0-14.86-40.69,10.34-58.13c0,0,7.75-7.43,23.58-1.61l5.49-91.72L149.07,303.17z"/>
	</defs>
	<clipPath id="SVGID_4_">
		<use xlink:href="#SVGID_3_"  style="overflow:visible;"/>
	</clipPath>
	<path class="st3" d="M149.07,303.17c0,0,140.98,40.69,262.57-8.72l2.42,106.58c0,0,9.2-16.47,38.76-15.5s39.73,41.66,39.73,41.66
		s5.33,25.68-6.78,42.63c0,0,76.54-0.97,51.35,82.36l-5.93,16.71H83.67c0,0-69.44-63.22-10.98-117.16c0,0,20.02-10.98,33.59,3.23
		c0,0-14.86-40.69,10.34-58.13c0,0,7.75-7.43,23.58-1.61l5.49-91.72L149.07,303.17z"/>
	<g class="st4">
		<g>
			<path class="st5" d="M136.65,393.04c-0.07,11.17,0.41,23,5.9,33.02c5.11,9.31,14.18,15.31,23.74,19.37
				c10.83,4.59,22.46,7.51,33.88,10.19c12.34,2.9,24.84,5.12,37.42,6.7c25.23,3.18,50.8,3.67,76.14,1.48
				c12.63-1.09,25.21-2.85,37.65-5.26c6.24-1.21,12.45-2.59,18.62-4.14c5.72-1.44,11.4-3.05,16.79-5.47
				c9.73-4.37,17.11-11.83,21.7-21.43c4.43-9.27,6.42-19.47,7.81-29.58c0.34-2.46,0.64-4.93,0.94-7.4c0.23-1.91-2.78-1.9-3,0
				c-2.22,18.87-5.49,41.52-22.96,52.62c-4.82,3.06-10.19,5.05-15.64,6.64c-5.67,1.66-11.44,3-17.22,4.25
				c-12.12,2.64-24.39,4.64-36.73,5.99c-24.51,2.67-49.3,2.81-73.85,0.44c-24.17-2.34-48.41-6.97-71.52-14.5
				c-9.51-3.1-19.24-7.22-26.24-14.62c-7.65-8.1-9.85-19.16-10.32-29.94c-0.12-2.78-0.14-5.57-0.12-8.35
				C139.66,391.11,136.66,391.11,136.65,393.04L136.65,393.04z"/>
		</g>
	</g>
	<g class="st4">
		<g>
			<path class="st5" d="M165.09,327.15c0,29.83,0,59.65,0,89.48c0,8.5,0,17,0,25.49c0,1.93,3,1.93,3,0c0-29.83,0-59.65,0-89.48
				c0-8.5,0-17,0-25.49C168.09,325.22,165.09,325.21,165.09,327.15L165.09,327.15z"/>
		</g>
	</g>
	<g class="st4">
		<g>
			<path class="st5" d="M183.82,327.15c0,18.59,0,37.18,0,55.77c0,5.31,0,10.62,0,15.93c0,1.93,3,1.93,3,0c0-18.59,0-37.18,0-55.77
				c0-5.31,0-10.62,0-15.93C186.82,325.22,183.82,325.21,183.82,327.15L183.82,327.15z"/>
		</g>
	</g>
	<g class="st4">
		<g>
			<path class="st5" d="M224.52,392.39c0,20.89,0,41.77,0,62.66c0,1.93,3,1.93,3,0c0-20.89,0-41.77,0-62.66
				C227.52,390.46,224.52,390.45,224.52,392.39L224.52,392.39z"/>
		</g>
	</g>
	<g class="st4">
		<g>
			<path class="st5" d="M246.48,438.89c0,6.67,0,13.35,0,20.02c0,1.93,3,1.93,3,0c0-6.67,0-13.35,0-20.02
				C249.48,436.96,246.48,436.96,246.48,438.89L246.48,438.89z"/>
		</g>
	</g>
	<g class="st4">
		<g>
			<path class="st5" d="M298.8,361.38c0,25.62,0,51.24,0,76.87c0,7.32,0,14.64,0,21.96c0,1.93,3,1.93,3,0c0-25.62,0-51.24,0-76.87
				c0-7.32,0-14.64,0-21.96C301.8,359.45,298.8,359.45,298.8,361.38L298.8,361.38z"/>
		</g>
	</g>
	<g class="st4">
		<g>
			<path class="st5" d="M365.98,398.85c0,17.01,0,34.02,0,51.03c0,1.93,3,1.93,3,0c0-17.01,0-34.02,0-51.03
				C368.98,396.92,365.98,396.91,365.98,398.85L365.98,398.85z"/>
		</g>
	</g>
	<g class="st4">
		<g>
			<path class="st5" d="M375.67,301.31c0,15.5,0,31.01,0,46.51c0,1.93,3,1.93,3,0c0-15.5,0-31.01,0-46.51
				C378.67,299.38,375.67,299.38,375.67,301.31L375.67,301.31z"/>
		</g>
	</g>
	<g class="st4">
		<g>
			<path class="st5" d="M393.11,300.02c0,28.05,0,56.1,0,84.15c0,7.91,0,15.81,0,23.72c0,1.93,3,1.93,3,0c0-28.05,0-56.1,0-84.15
				c0-7.91,0-15.81,0-23.72C396.11,298.09,393.11,298.08,393.11,300.02L393.11,300.02z"/>
		</g>
	</g>
</g>
</svg>
