<?xml version="1.0" encoding="utf-8"?>
<!-- Generator: Adobe Illustrator 24.3.0, SVG Export Plug-In . SVG Version: 6.00 Build 0)  -->
<svg version="1.1" id="Layer_1" xmlns="http://www.w3.org/2000/svg" xmlns:xlink="http://www.w3.org/1999/xlink" x="0px" y="0px"
	 viewBox="0 0 228 254.6" style="enable-background:new 0 0 228 254.6;" xml:space="preserve">
<style type="text/css">
	.st0{fill:#494949;}
</style>
<path class="st0" d="M114.9,218.4c-2.6-1-5.7-1.6-8-3.1c-8.4-5.3-10-14.1-4.2-22.1c11.2-15.3,22.5-30.4,33.7-45.7
	c4.6-6.3,9.2-12.5,13.8-18.7c0.9-1.2,1-2,0-3.3c-15.8-21.4-31.6-42.9-47.5-64.3c-3.5-4.8-4.7-9.8-2.3-15.3c2.5-5.5,7.1-8.8,13.8-9.7
	c6.7-1,12.3,0.8,16.7,5.2c1,0.9,1.8,1.9,2.6,3c17.8,24.2,35.6,48.3,53.6,72.5c5.1,6.9,5.1,13.3,0,20.2c-17.5,23.6-34.8,47.1-52,70.7
	c-3.9,5.2-8.3,9.4-15.7,10.4C117.9,218.4,116.4,218.4,114.9,218.4z"/>
<path class="st0" d="M57,218.4c-2.7-1-5.7-1.5-8-3c-8.5-5.3-10.1-14.1-4.3-22c13.1-17.8,26.3-35.6,39.3-53.3
	c2.7-3.8,5.5-7.5,8.4-11.2c0.9-1.2,0.9-1.9,0-3.1c-15.9-21.4-31.7-43-47.5-64.4c-4.3-5.7-4.8-11.6-0.9-17.6
	c5.9-8.9,21.4-10.1,29-2.2c1,1,1.8,2.1,2.6,3.1c18,24.3,35.9,48.7,53.9,73c4.8,6.5,4.9,12.8,0.1,19.3c-17.5,23.7-35,47.3-52.3,71.1
	c-3.9,5.3-8.3,9.5-15.7,10.5C59.9,218.4,58.5,218.4,57,218.4z"/>
</svg>
