<?xml version="1.0" encoding="utf-8"?>
<!-- Generator: Adobe Illustrator 24.3.0, SVG Export Plug-In . SVG Version: 6.00 Build 0)  -->
<svg version="1.1" id="Layer_1" xmlns="http://www.w3.org/2000/svg" xmlns:xlink="http://www.w3.org/1999/xlink" x="0px" y="0px"
	 viewBox="0 0 307 427" style="enable-background:new 0 0 307 427;" xml:space="preserve">
<style type="text/css">
	.st0{fill:#FFFCE8;}
	.st1{clip-path:url(#SVGID_2_);fill:#FFF1AB;}
	.st2{clip-path:url(#SVGID_4_);}
	.st3{fill:#FFE882;}
	.st4{clip-path:url(#SVGID_6_);}
	.st5{fill:#FFFFFF;}
	.st6{clip-path:url(#SVGID_8_);}
	.st7{clip-path:url(#SVGID_10_);}
	.st8{clip-path:url(#SVGID_12_);}
	.st9{clip-path:url(#SVGID_14_);}
	.st10{clip-path:url(#SVGID_16_);}
	.st11{clip-path:url(#SVGID_18_);}
	.st12{clip-path:url(#SVGID_20_);}
	.st13{clip-path:url(#SVGID_22_);}
	.st14{clip-path:url(#SVGID_24_);}
	.st15{clip-path:url(#SVGID_26_);}
</style>
<g>
	<path class="st0" d="M275.5,157.2C241.4,66.8,148,9.4,54.4,24.4c-57.3,9.2-40.7,27.7-32,50.7l2.7,7.1c5.8-5,13.4-8.7,22-9.9
		c88.5-13,172.4,25.8,199.7,98.1c24.7,65.5-4.2,139.2-66.4,186.5c-14,10.6-31.3,14.2-46.4,11.6c16.5,28.1,1.9,70.9,82.5,13.3
		C284.5,333.2,306.4,239,275.5,157.2z"/>
	<g>
		<g>
			<defs>
				<path id="SVGID_1_" d="M188,367.5c66.7-51.7,97.8-132.2,71.3-203.7C230,84.8,139.9,42.4,45,56.7C35.7,58,27.6,62,21.4,67.5
					L134,371.2c1.2,3.2,2.6,6.2,4.2,9C154.5,383,173,379.1,188,367.5z"/>
			</defs>
			<clipPath id="SVGID_2_">
				<use xlink:href="#SVGID_1_"  style="overflow:visible;"/>
			</clipPath>
			<path class="st1" d="M188,367.5c66.7-51.7,97.8-132.2,71.3-203.7C230,84.8,139.9,42.4,45,56.7C35.7,58,27.6,62,21.4,67.5
				L134,371.2c1.2,3.2,2.6,6.2,4.2,9C154.5,383,173,379.1,188,367.5z"/>
		</g>
		<g>
			<defs>
				<path id="SVGID_3_" d="M188,367.5c66.7-51.7,97.8-132.2,71.3-203.7C230,84.8,139.9,42.4,45,56.7C35.7,58,27.6,62,21.4,67.5
					L134,371.2c1.2,3.2,2.6,6.2,4.2,9C154.5,383,173,379.1,188,367.5z"/>
			</defs>
			<clipPath id="SVGID_4_">
				<use xlink:href="#SVGID_3_"  style="overflow:visible;"/>
			</clipPath>
			<g class="st2">
				<g>
					<g>
						<path class="st3" d="M75.6,227c14-49.5,45.6-91.3,76.1-131.8c5-6.7-6.3-13.2-11.2-6.6c-31.2,41.5-63,84.3-77.4,134.9
							C60.8,231.6,73.3,235,75.6,227L75.6,227z"/>
					</g>
				</g>
				<g>
					<g>
						<path class="st3" d="M76.7,242.2c36.7-39,90.1-59.8,143.4-58.7c8.4,0.2,8.4-12.8,0-13c-56.5-1.2-113.6,21.2-152.6,62.5
							C61.8,239.1,70.9,248.3,76.7,242.2L76.7,242.2z"/>
					</g>
				</g>
				<g>
					<g>
						<path class="st3" d="M74.8,245.7c45.3-4.5,90.9,0.3,134.2,14.6c8,2.6,11.4-9.9,3.5-12.5c-44.2-14.5-91.3-19.7-137.6-15
							C66.5,233.6,66.4,246.6,74.8,245.7L74.8,245.7z"/>
					</g>
				</g>
				<g>
					<g>
						<path class="st3" d="M65.8,248c38.5,20.8,74.3,46.1,106.5,75.8c6.1,5.7,15.4-3.5,9.2-9.2c-33-30.4-69.7-56.5-109.1-77.8
							C65,232.8,58.5,244,65.8,248L65.8,248z"/>
					</g>
				</g>
			</g>
		</g>
		<g>
			<defs>
				<path id="SVGID_5_" d="M188,367.5c66.7-51.7,97.8-132.2,71.3-203.7C230,84.8,139.9,42.4,45,56.7C35.7,58,27.6,62,21.4,67.5
					L134,371.2c1.2,3.2,2.6,6.2,4.2,9C154.5,383,173,379.1,188,367.5z"/>
			</defs>
			<clipPath id="SVGID_6_">
				<use xlink:href="#SVGID_5_"  style="overflow:visible;"/>
			</clipPath>
			<g class="st4">
				<g>
					<path class="st5" d="M60.8,92.1c0.9,2,1.8,4,2.7,6.1c0.6,1.4,2.5,2.6,3.9,3c1.6,0.4,3.6,0.2,5-0.7c1.4-0.9,2.6-2.2,3-3.9
						c0.4-1.8,0.1-3.3-0.7-5c-0.9-2-1.8-4-2.7-6.1c-0.6-1.4-2.5-2.6-3.9-3c-1.6-0.4-3.6-0.2-5,0.7c-1.4,0.9-2.6,2.2-3,3.9
						C59.7,88.9,60.1,90.4,60.8,92.1L60.8,92.1z"/>
				</g>
			</g>
		</g>
		<g>
			<defs>
				<path id="SVGID_7_" d="M188,367.5c66.7-51.7,97.8-132.2,71.3-203.7C230,84.8,139.9,42.4,45,56.7C35.7,58,27.6,62,21.4,67.5
					L134,371.2c1.2,3.2,2.6,6.2,4.2,9C154.5,383,173,379.1,188,367.5z"/>
			</defs>
			<clipPath id="SVGID_8_">
				<use xlink:href="#SVGID_7_"  style="overflow:visible;"/>
			</clipPath>
			<g class="st6">
				<g>
					<path class="st5" d="M92.6,99.2c0.2,0.5,0.4,1.1,0.5,1.6c0.1,0.4,0.2,0.7,0.2,1.1c-0.1-0.7-0.1-0.8-0.1-0.3
						c0,1.3,0.1,2.4-0.1,3.7c-0.4,3.4,3.3,6.6,6.5,6.5c3.9-0.2,6-2.9,6.5-6.5c0.4-3.2,0-6.6-1-9.6c-1.1-3.2-4.5-5.7-8-4.5
						C93.9,92.3,91.4,95.8,92.6,99.2L92.6,99.2z"/>
				</g>
			</g>
		</g>
		<g>
			<defs>
				<path id="SVGID_9_" d="M188,367.5c66.7-51.7,97.8-132.2,71.3-203.7C230,84.8,139.9,42.4,45,56.7C35.7,58,27.6,62,21.4,67.5
					L134,371.2c1.2,3.2,2.6,6.2,4.2,9C154.5,383,173,379.1,188,367.5z"/>
			</defs>
			<clipPath id="SVGID_10_">
				<use xlink:href="#SVGID_9_"  style="overflow:visible;"/>
			</clipPath>
			<g class="st7">
				<g>
					<path class="st5" d="M74.9,140.7c0,2.3,0,4.6,0,7c0,3.4,3,6.7,6.5,6.5c3.5-0.2,6.5-2.9,6.5-6.5c0-2.3,0-4.6,0-7
						c0-3.4-3-6.7-6.5-6.5C77.8,134.4,74.9,137.1,74.9,140.7L74.9,140.7z"/>
				</g>
			</g>
		</g>
		<g>
			<defs>
				<path id="SVGID_11_" d="M188,367.5c66.7-51.7,97.8-132.2,71.3-203.7C230,84.8,139.9,42.4,45,56.7C35.7,58,27.6,62,21.4,67.5
					L134,371.2c1.2,3.2,2.6,6.2,4.2,9C154.5,383,173,379.1,188,367.5z"/>
			</defs>
			<clipPath id="SVGID_12_">
				<use xlink:href="#SVGID_11_"  style="overflow:visible;"/>
			</clipPath>
			<g class="st8">
				<g>
					<path class="st5" d="M156.2,129.2c-0.8,1.4-1.6,2.9-2.4,4.3c-1.7,3-0.8,7.2,2.3,8.9c3.1,1.6,7.1,0.8,8.9-2.3
						c0.8-1.4,1.6-2.9,2.4-4.3c1.7-3,0.8-7.2-2.3-8.9C162,125.3,157.9,126.1,156.2,129.2L156.2,129.2z"/>
				</g>
			</g>
		</g>
		<g>
			<defs>
				<path id="SVGID_13_" d="M188,367.5c66.7-51.7,97.8-132.2,71.3-203.7C230,84.8,139.9,42.4,45,56.7C35.7,58,27.6,62,21.4,67.5
					L134,371.2c1.2,3.2,2.6,6.2,4.2,9C154.5,383,173,379.1,188,367.5z"/>
			</defs>
			<clipPath id="SVGID_14_">
				<use xlink:href="#SVGID_13_"  style="overflow:visible;"/>
			</clipPath>
			<g class="st9">
				<g>
					<path class="st5" d="M194,146.5c-1.4,1.4-2.9,2.8-4.3,4.2c-2.5,2.4-2.5,6.9,0,9.2c2.6,2.4,6.6,2.5,9.2,0
						c1.4-1.4,2.9-2.8,4.3-4.2c2.5-2.4,2.5-6.9,0-9.2C200.5,144.1,196.6,144,194,146.5L194,146.5z"/>
				</g>
			</g>
		</g>
		<g>
			<defs>
				<path id="SVGID_15_" d="M188,367.5c66.7-51.7,97.8-132.2,71.3-203.7C230,84.8,139.9,42.4,45,56.7C35.7,58,27.6,62,21.4,67.5
					L134,371.2c1.2,3.2,2.6,6.2,4.2,9C154.5,383,173,379.1,188,367.5z"/>
			</defs>
			<clipPath id="SVGID_16_">
				<use xlink:href="#SVGID_15_"  style="overflow:visible;"/>
			</clipPath>
			<g class="st10">
				<g>
					<path class="st5" d="M200.7,118.9c-0.6-0.3-1.2-0.6-1.7-0.9c-0.8-0.5-1.5-0.7-2.4-0.8c-0.9-0.2-1.7-0.1-2.6,0.1
						c-0.9,0.2-1.6,0.6-2.2,1.2c-0.7,0.5-1.3,1.1-1.7,1.8c-0.8,1.5-1.2,3.3-0.7,5c0.5,1.5,1.5,3.1,3,3.9c0.6,0.3,1.2,0.6,1.7,0.9
						c0.8,0.5,1.5,0.7,2.4,0.8c0.9,0.2,1.7,0.1,2.6-0.1c0.9-0.2,1.6-0.6,2.2-1.2c0.7-0.5,1.3-1.1,1.7-1.8c0.8-1.5,1.2-3.3,0.7-5
						C203.2,121.2,202.2,119.6,200.7,118.9L200.7,118.9z"/>
				</g>
			</g>
		</g>
		<g>
			<defs>
				<path id="SVGID_17_" d="M188,367.5c66.7-51.7,97.8-132.2,71.3-203.7C230,84.8,139.9,42.4,45,56.7C35.7,58,27.6,62,21.4,67.5
					L134,371.2c1.2,3.2,2.6,6.2,4.2,9C154.5,383,173,379.1,188,367.5z"/>
			</defs>
			<clipPath id="SVGID_18_">
				<use xlink:href="#SVGID_17_"  style="overflow:visible;"/>
			</clipPath>
			<g class="st11">
				<g>
					<path class="st5" d="M240.9,209.6c-3.7-1.7-7.1-2.1-11.1-1.4c-3.4,0.6-5.5,4.9-4.5,8c1.2,3.6,4.4,5.2,8,4.5
						c1.4-0.2-1.5,0-0.1,0c0.3,0,0.9,0.1,1.3,0c-0.3,0-0.6-0.1-0.9-0.1c0.3,0,0.5,0.1,0.8,0.2c0.4,0.1,1.6,0.7,0-0.1
						c1.6,0.7,3.2,1.1,5,0.7c1.5-0.4,3.1-1.6,3.9-3C244.7,215.7,244.2,211.1,240.9,209.6L240.9,209.6z"/>
				</g>
			</g>
		</g>
		<g>
			<defs>
				<path id="SVGID_19_" d="M188,367.5c66.7-51.7,97.8-132.2,71.3-203.7C230,84.8,139.9,42.4,45,56.7C35.7,58,27.6,62,21.4,67.5
					L134,371.2c1.2,3.2,2.6,6.2,4.2,9C154.5,383,173,379.1,188,367.5z"/>
			</defs>
			<clipPath id="SVGID_20_">
				<use xlink:href="#SVGID_19_"  style="overflow:visible;"/>
			</clipPath>
			<g class="st12">
				<g>
					<path class="st5" d="M183.5,213.2c-2.3,0-4.6,0-7,0c-3.4,0-6.7,3-6.5,6.5c0.2,3.5,2.9,6.5,6.5,6.5c2.3,0,4.6,0,7,0
						c3.4,0,6.7-3,6.5-6.5C189.8,216.2,187.1,213.2,183.5,213.2L183.5,213.2z"/>
				</g>
			</g>
		</g>
		<g>
			<defs>
				<path id="SVGID_21_" d="M188,367.5c66.7-51.7,97.8-132.2,71.3-203.7C230,84.8,139.9,42.4,45,56.7C35.7,58,27.6,62,21.4,67.5
					L134,371.2c1.2,3.2,2.6,6.2,4.2,9C154.5,383,173,379.1,188,367.5z"/>
			</defs>
			<clipPath id="SVGID_22_">
				<use xlink:href="#SVGID_21_"  style="overflow:visible;"/>
			</clipPath>
			<g class="st13">
				<g>
					<path class="st5" d="M213.4,305.9c-1.2-1.2-2.3-2.3-3.5-3.5c-1.2-1.2-2.9-1.9-4.6-1.9c-1.6,0-3.5,0.7-4.6,1.9
						c-1.1,1.2-2,2.9-1.9,4.6c0.1,1.7,0.7,3.3,1.9,4.6c1.2,1.2,2.3,2.3,3.5,3.5c1.2,1.2,2.9,1.9,4.6,1.9c1.6,0,3.5-0.7,4.6-1.9
						c1.1-1.2,2-2.9,1.9-4.6C215.2,308.7,214.6,307.1,213.4,305.9L213.4,305.9z"/>
				</g>
			</g>
		</g>
		<g>
			<defs>
				<path id="SVGID_23_" d="M188,367.5c66.7-51.7,97.8-132.2,71.3-203.7C230,84.8,139.9,42.4,45,56.7C35.7,58,27.6,62,21.4,67.5
					L134,371.2c1.2,3.2,2.6,6.2,4.2,9C154.5,383,173,379.1,188,367.5z"/>
			</defs>
			<clipPath id="SVGID_24_">
				<use xlink:href="#SVGID_23_"  style="overflow:visible;"/>
			</clipPath>
			<g class="st14">
				<g>
					<path class="st5" d="M220.1,292.5c8.4,0,8.4-13,0-13C211.7,279.5,211.7,292.5,220.1,292.5L220.1,292.5z"/>
				</g>
			</g>
		</g>
		<g>
			<defs>
				<path id="SVGID_25_" d="M188,367.5c66.7-51.7,97.8-132.2,71.3-203.7C230,84.8,139.9,42.4,45,56.7C35.7,58,27.6,62,21.4,67.5
					L134,371.2c1.2,3.2,2.6,6.2,4.2,9C154.5,383,173,379.1,188,367.5z"/>
			</defs>
			<clipPath id="SVGID_26_">
				<use xlink:href="#SVGID_25_"  style="overflow:visible;"/>
			</clipPath>
			<g class="st15">
				<g>
					<path class="st5" d="M139.8,325.7c8.4,0,8.4-13,0-13C131.5,312.7,131.4,325.7,139.8,325.7L139.8,325.7z"/>
				</g>
			</g>
		</g>
	</g>
</g>
</svg>
