<?xml version="1.0" encoding="utf-8"?>
<!-- Generator: Adobe Illustrator 24.3.0, SVG Export Plug-In . SVG Version: 6.00 Build 0)  -->
<svg version="1.1" id="Layer_1" xmlns="http://www.w3.org/2000/svg" xmlns:xlink="http://www.w3.org/1999/xlink" x="0px" y="0px"
	 viewBox="0 0 24 24" style="enable-background:new 0 0 24 24;" xml:space="preserve">
<style type="text/css">
	.st0{fill:#3D3D3D;}
</style>
<path class="st0" d="M12,1.5c-3.9,0-7.4,3.2-7.4,7.1c0,3.5,2.6,7.6,6.1,13.1c0.6,1,2.1,1,2.7,0c3.5-5.6,6.1-9.6,6.1-13.1
	C19.4,4.7,15.9,1.5,12,1.5z M13.4,11.4c-2.6,1.3-5.1-1.3-3.9-3.9c0.2-0.4,0.6-0.8,1-1c2.6-1.3,5.1,1.3,3.9,3.9
	C14.2,10.8,13.9,11.2,13.4,11.4z"/>
</svg>
