<?xml version="1.0" encoding="utf-8"?>
<!-- Generator: Adobe Illustrator 24.3.0, SVG Export Plug-In . SVG Version: 6.00 Build 0)  -->
<svg version="1.1" id="Layer_1" xmlns="http://www.w3.org/2000/svg" xmlns:xlink="http://www.w3.org/1999/xlink" x="0px" y="0px"
	 viewBox="0 0 525 451" style="enable-background:new 0 0 525 451;" xml:space="preserve">
<style type="text/css">
	.st0{fill:#95A3BF;}
	.st1{fill:#B9D260;}
	.st2{fill:#B6DBD5;}
</style>
<g>
	<g>
		<path class="st0" d="M84.1,407.3c-2.1-27.2-1.2-54.5,2.4-81.6c-0.4,3.1-0.8,6.3-1.3,9.4c5.4-39.1,16.3-77.3,31.6-113.7
			c-1.2,2.8-2.4,5.6-3.6,8.5c15.6-36.9,35.4-72.6,59.9-104.4c-1.9,2.4-3.7,4.8-5.6,7.2c9.6-12.3,20.2-23.8,32.6-33.4
			c-2.4,1.9-4.8,3.7-7.2,5.6c8.4-6.4,17.3-11.7,27-15.8c-2.8,1.2-5.6,2.4-8.5,3.6c11.1-4.6,22.6-7.6,34.5-9.2
			c-3.1,0.4-6.3,0.9-9.4,1.3c14.8-1.8,29.6-1.5,44.4,0.3c-3.1-0.4-6.3-0.9-9.4-1.3c21.2,2.9,41.8,8.9,61.5,17.1
			c-2.8-1.2-5.6-2.4-8.5-3.6c12.9,5.5,25.3,12.1,36.5,20.6c-2.4-1.9-4.8-3.7-7.2-5.6c11.9,9.2,22.1,20.1,31.3,32
			c-1.9-2.4-3.7-4.8-5.5-7.2c15.4,20.1,27.9,42.3,37.8,65.6c-1.2-2.8-2.4-5.6-3.6-8.5c11.2,26.8,18.8,54.9,22.8,83.7
			c-0.4-3.1-0.9-6.3-1.3-9.4c3.9,29.4,4,59.2,0.1,88.7c0.4-3.1,0.9-6.3,1.3-9.4c-1.6,11.4-3.8,22.7-6.5,33.9
			c-4.5,18,5.8,39.3,24.8,43.7c18.4,4.2,38.9-5.5,43.7-24.8c15.6-62.8,14-130-4.5-192c-9.2-30.6-22.4-60.7-39.6-87.7
			c-19.4-30.3-43.5-58-75.2-75.7C348,27.7,313.1,17.7,277.7,13.7c-34.8-4-70.5,1.9-101.7,18c-31.6,16.3-55.2,44.4-75,73.2
			c-17.6,25.6-32.9,52.9-45.5,81.3C27.8,248.4,11,315.4,12,383.8c0.1,7.9,0.5,15.7,1.1,23.5c0.7,9.5,3.5,18.2,10.4,25.1
			c6.2,6.2,16.3,10.8,25.1,10.4C66.6,442,85.6,427.2,84.1,407.3L84.1,407.3z"/>
	</g>
</g>
<g>
	<g>
		<path class="st1" d="M140.9,397.6c0.3-25.6,1.8-51.1,5.1-76.5c-0.4,3.1-0.9,6.3-1.3,9.4c4.6-33.7,12.6-66.9,25.7-98.4
			c-1.2,2.8-2.4,5.6-3.6,8.5c9.5-22.5,21.5-43.9,36.4-63.3c-1.9,2.4-3.7,4.8-5.6,7.2c8.5-10.9,17.8-21.4,28.7-30.1
			c-2.4,1.9-4.8,3.7-7.2,5.6c5.6-4.3,11.6-8,18.1-10.9c-2.8,1.2-5.6,2.4-8.5,3.6c6.6-2.7,13.4-4.3,20.4-5.4
			c-3.1,0.4-6.3,0.9-9.4,1.3c15.8-2,32-1.6,47.7,0.5c-3.1-0.4-6.3-0.9-9.4-1.3c10.9,1.6,21.6,4.2,31.8,8.5c-2.8-1.2-5.6-2.4-8.5-3.6
			c7.1,3.1,13.7,6.9,19.9,11.6c-2.4-1.9-4.8-3.7-7.2-5.6c6.9,5.4,12.9,11.8,18.3,18.6c-1.9-2.4-3.7-4.8-5.5-7.2
			c12.6,16.4,22.3,35.1,30.4,54.1c-1.2-2.8-2.4-5.6-3.6-8.5c10.8,25.8,18.1,52.9,21.8,80.6c-0.4-3.1-0.9-6.3-1.3-9.4
			c3.5,27.2,3.6,54.8,0,82c0.4-3.1,0.9-6.3,1.3-9.4c-0.9,6.2-1.9,12.4-3.1,18.6c-1.9,9.5-1.4,18.8,3.6,27.4
			c4.3,7.4,12.8,14.4,21.2,16.3c17.6,4,39.9-5.3,43.7-24.8c10.1-51.9,9-105.2-4.1-156.5c-6.5-25.5-16.3-50.4-28.4-73.7
			c-12.8-24.6-28.9-47.1-51.3-63.9c-22.7-17.1-51-23.6-78.7-25.9c-28.5-2.4-58.9,0-84.2,14.3c-24.1,13.6-42.5,36-58.2,58.2
			c-15.3,21.6-26.8,45.4-36.5,70c-22.2,56.2-28.8,118-29.5,178c-0.2,18.6,16.5,36.4,35.5,35.5C124.9,432.2,140.7,417.5,140.9,397.6
			L140.9,397.6z"/>
	</g>
</g>
<g>
	<g>
		<path class="st2" d="M204.7,397.6c0.5-15,1.9-30,3.9-44.9c-0.4,3.1-0.9,6.3-1.3,9.4c2.8-20.4,6.3-40.8,10.5-61
			c3.8-18.5,8.6-36.9,15.9-54.3c-1.2,2.8-2.4,5.6-3.6,8.5c4.8-11.1,10.5-21.8,17.9-31.5c-1.9,2.4-3.7,4.8-5.5,7.2
			c5.1-6.5,10.9-12.4,17.4-17.5c-2.4,1.9-4.8,3.7-7.2,5.5c5.6-4.2,11.5-7.8,17.9-10.6c-2.8,1.2-5.6,2.4-8.5,3.6
			c4.9-2,9.9-3.4,15.1-4.2c-3.1,0.4-6.3,0.9-9.4,1.3c4.7-0.6,9.3-0.7,14-0.1c-3.1-0.4-6.3-0.9-9.4-1.3c4.3,0.6,8.4,1.8,12.4,3.4
			c-2.8-1.2-5.6-2.4-8.5-3.6c4.4,1.9,8.5,4.4,12.4,7.3c-2.4-1.9-4.8-3.7-7.2-5.5c4.7,3.7,8.8,8,12.6,12.6c-1.9-2.4-3.7-4.8-5.5-7.2
			c5.1,6.6,9.2,13.7,12.5,21.3c-1.2-2.8-2.4-5.6-3.6-8.5c5.1,12.3,8,25.2,9.9,38.3c-0.4-3.1-0.9-6.3-1.3-9.4
			c5.7,43.7,3.7,89.2-1.1,132.9c-0.9,8.5,4.6,19.3,10.4,25.1c6.2,6.2,16.3,10.8,25.1,10.4c9.2-0.4,18.7-3.4,25.1-10.4
			c6.8-7.4,9.3-15.2,10.4-25.1c4.3-39.1,5.7-79,2.6-118.2c-1.6-20.8-4.4-42.2-12.4-61.7c-7.8-19-18.1-37.4-34.5-50.4
			c-17.3-13.7-38.4-23.3-61-21.3c-13.5,1.2-24.1,4.2-36.4,9.7c-9.2,4.1-17.1,10-25,16.3c-30,24-46,62.8-55.2,99.1
			c-5,19.8-8.6,40-11.9,60.1c-4,24.7-7.4,49.6-8.2,74.7c-0.6,18.6,16.8,36.3,35.5,35.5C189,432.2,204.1,417.5,204.7,397.6
			L204.7,397.6z"/>
	</g>
</g>
</svg>
