<?xml version="1.0" encoding="utf-8"?>
<!-- Generator: Adobe Illustrator 24.3.0, SVG Export Plug-In . SVG Version: 6.00 Build 0)  -->
<svg version="1.1" id="Layer_1" xmlns="http://www.w3.org/2000/svg" xmlns:xlink="http://www.w3.org/1999/xlink" x="0px" y="0px"
	 viewBox="0 0 595.3 841.9" style="enable-background:new 0 0 595.3 841.9;" xml:space="preserve">
<style type="text/css">
	.st0{fill:#AD1010;}
	.st1{fill:#23692E;}
	.st2{fill:#383838;}
</style>
<g>
	<g>
		<path class="st0" d="M268.3,285.3c1.5-2.8,3.2-5.4,5.1-7.9c-2.6,3.4-5.2,6.8-7.8,10.1c3.3-4.1,7-7.6,11.1-10.8
			c-3.4,2.6-6.8,5.2-10.1,7.8c5-3.7,10.4-6.8,16.1-9.3c-4,1.7-8,3.4-11.9,5c19.3-8.1,40.9-10.9,61.5-13.7c-4.4,0.6-8.9,1.2-13.3,1.8
			c13.9-1.8,27.9-2.7,41.9-1c-4.4-0.6-8.9-1.2-13.3-1.8c7.3,1.1,14.4,2.9,21.2,5.6c-4-1.7-8-3.4-11.9-5c7,3,13.4,6.8,19.5,11.3
			c-3.4-2.6-6.8-5.2-10.1-7.8c6.8,5.3,12.8,11.5,18,18.3c-2.6-3.4-5.2-6.8-7.8-10.1c5.6,7.4,10.2,15.4,13.9,23.9
			c-1.7-4-3.4-8-5-11.9c4,9.7,6.8,19.7,8.2,30.1c-0.6-4.4-1.2-8.9-1.8-13.3c1.5,11.9,1.3,23.8-0.2,35.7c0.6-4.4,1.2-8.9,1.8-13.3
			c-2,14.2-5.9,27.9-11.4,41.1c1.7-4,3.4-8,5-11.9c-6.7,15.8-15.6,30.4-26.1,44c2.6-3.4,5.2-6.8,7.8-10.1
			c-16.9,21.6-37.2,40.1-58.8,56.9c3.4-2.6,6.8-5.2,10.1-7.8c-22.9,17.6-47.1,33.7-73.9,45.1c4-1.7,8-3.4,11.9-5
			c-11,4.6-22.6,9-34.4,10.8c4.4-0.6,8.9-1.2,13.3-1.8c-1.8,0.2-3.3,0.2-5.1,0c4.4,0.6,8.9,1.2,13.3,1.8c-1.1-0.2-2.1-0.5-3.1-0.9
			c4,1.7,8,3.4,11.9,5c-1.5-0.7-2.7-1.5-4.1-2.5c3.4,2.6,6.8,5.2,10.1,7.8c-3.3-2.9-6.1-6.3-8.8-9.8c2.6,3.4,5.2,6.8,7.8,10.1
			c-6.7-8.9-12.1-18.6-16.5-28.9c1.7,4,3.4,8,5,11.9c-6-14.6-9.7-30-11.9-45.6c0.6,4.4,1.2,8.9,1.8,13.3c-2.2-16.4-2.8-33-2.8-49.5
			c0.1-16.6,0.5-33.2,2.6-49.7c-0.6,4.4-1.2,8.9-1.8,13.3c2.6-18.9,8.1-36.6,15.4-54.1c-1.7,4-3.4,8-5,11.9
			c5.6-13.3,11.6-26.6,20.4-38.1c-2.6,3.4-5.2,6.8-7.8,10.1c3.5-4.4,7.4-8.4,11.8-11.8c-3.4,2.6-6.8,5.2-10.1,7.8
			c3.5-2.6,7.2-4.7,11.2-6.5c-4,1.7-8,3.4-11.9,5c7.5-3.1,15.4-4.7,23.4-5.9c-4.4,0.6-8.9,1.2-13.3,1.8c11-1.5,22.4-3.1,33.5-1.9
			c-4.4-0.6-8.9-1.2-13.3-1.8c4.1,0.5,7.9,1.5,11.6,3c-4-1.7-8-3.4-11.9-5c4.5,2,8.5,4.6,12.4,7.6c-3.4-2.6-6.8-5.2-10.1-7.8
			c6.5,5.2,12.2,11,17.2,17.6c-2.6-3.4-5.2-6.8-7.8-10.1c5.3,7,9.6,14.5,13,22.5c-1.7-4-3.4-8-5-11.9c2.9,7.1,4.9,14.4,6,22
			c-0.6-4.4-1.2-8.9-1.8-13.3c0.9,7,0.9,14,0,21.1c0.6-4.4,1.2-8.9,1.8-13.3c-1,6.6-2.9,12.8-5.5,19c1.7-4,3.4-8,5-11.9
			c-10.1,23-26.1,43.7-41.3,63.5c2.6-3.4,5.2-6.8,7.8-10.1c-10.7,13.8-21.7,27.4-32.9,40.9c-5.5,6.6-11.1,13.2-16.8,19.7
			c-5.3,6.1-10.5,13.8-16.9,18.9c7.4-4.3,14.7-8.6,22.1-12.9c-0.4,0.1-0.7,0.3-1,0.4c4.4-0.6,8.9-1.2,13.3-1.8
			c-0.4,0-0.9-0.1-1.3-0.1c8.4,2.3,16.8,4.5,25.2,6.8c-0.4-0.2-0.8-0.4-1.2-0.6c3.4,2.6,6.8,5.2,10.1,7.8c-0.8-0.6-1.4-1.3-2-2.1
			c2.6,3.4,5.2,6.8,7.8,10.1c-4.2-5.8-7.6-12-10.4-18.6c1.7,4,3.4,8,5,11.9c-3.7-9-6.1-18.4-7.4-28.1c0.6,4.4,1.2,8.9,1.8,13.3
			c-1.4-11.4-1.2-22.8,0.3-34.2c-0.6,4.4-1.2,8.9-1.8,13.3c1.7-12,4.9-23.5,9.5-34.7c-1.7,4-3.4,8-5,11.9
			c6-14.1,13.9-27.2,23.2-39.4c-2.6,3.4-5.2,6.8-7.8,10.1c13.8-17.8,30-33.2,47.5-47.3c-3.4,2.6-6.8,5.2-10.1,7.8
			c0.7-0.6,1.4-1,2.1-1.5c-4,1.7-8,3.4-11.9,5c0.4-0.2,0.8-0.3,1.2-0.5c-4.4,0.6-8.9,1.2-13.3,1.8c0.4,0,0.8-0.1,1.2-0.1
			c-4.4-0.6-8.9-1.2-13.3-1.8c0.5,0.1,1,0.2,1.4,0.4c-4-1.7-8-3.4-11.9-5c0.4,0.3,0.9,0.5,1.3,0.8c-3.4-2.6-6.8-5.2-10.1-7.8
			c1.2,1.1,2.1,2.2,3.1,3.4c-2.6-3.4-5.2-6.8-7.8-10.1c1.5,2.1,2.8,4.3,3.8,6.7c-1.7-4-3.4-8-5-11.9c1.1,3,1.9,6,2.4,9.1
			c-0.6-4.4-1.2-8.9-1.8-13.3c0.4,3.9,0.4,7.6-0.1,11.4c0.6-4.4,1.2-8.9,1.8-13.3c-1,6.5-2.9,12.6-5.4,18.6c1.7-4,3.4-8,5-11.9
			c-5.7,13.2-13.1,25.5-21.9,36.9c2.6-3.4,5.2-6.8,7.8-10.1c-8.7,11.1-18.7,21.1-29.9,29.8c-9.4,7.3-14.6,24.1-14.6,35.4
			c0,12.3,5.4,26.9,14.6,35.4c9.5,8.8,22,15.2,35.4,14.6c4.4-0.6,8.9-1.2,13.3-1.8c8.5-2.4,15.8-6.7,22.1-12.9
			c13-10.1,23.8-21.9,33.8-34.9c10-12.9,18.8-26.2,25.4-41.2c3-6.8,6.2-13.9,8.5-21c2.4-7.6,3.2-15.7,4.1-23.6
			c0.4-3.3,0.5-6.5,0.2-9.8c-0.6-7.4-1.3-15.4-3.8-22.5c-6.6-19.3-18.4-36.6-37.7-44.8c-6.9-2.9-13.6-4.7-21.3-4.6
			c-7.7,0.1-14.1,1.9-21,4.8c-8.6,3.6-15.4,9.4-22.6,15.4c-24.8,20.5-47.3,45-63.8,72.7c-18.1,30.5-28.9,66.6-28,102.2
			c0.5,17,2.9,35,9,50.9c3.8,9.9,7.9,20,13.6,28.9c3.6,5.7,7.7,11.3,12.3,16.2c12.8,13.7,34.4,18.9,52.2,13.9
			c15.9-4.5,25.5-15.8,35.7-27.6c5.5-6.3,10.9-12.6,16.2-18.9c10.9-12.9,21.6-26,32-39.3c24-30.5,50.8-62.9,62.4-100.6
			c6.4-20.7,5.8-42.5,1.5-63.5c-2.1-10.3-6.3-19.8-10.5-29.4c-2.6-6.1-5.8-12-9.6-17.5c-12-17.6-26.6-33.5-45-44.5
			c-20.4-12.2-43.5-14.5-66.6-12c-22.8,2.4-45.7,5.2-65.6,17.7c-17.8,11.2-31.8,27.2-42.1,45.4c-9.2,16.3-16.3,34.2-22.7,51.7
			c-7.1,19.5-10.2,39.7-12.2,60.3c-3.6,37-2.3,74.9,3.8,111.5c3.2,19,9.5,36.4,17.3,54c2.9,6.6,6.4,13,10.3,19.1
			c5.9,8.9,12.4,18.2,20.2,25.6c8.1,7.6,17.4,13.5,28.1,16.7c11.8,3.5,23,2.6,34.9,0.5c7.3-1.3,14.5-3.6,21.5-6.1
			c17.9-6.3,35.4-14.1,51.8-23.5c29.2-16.7,56.8-37.8,81.7-60.4c11.2-10.1,21.7-21,31.1-32.8c11.8-14.7,23-29.8,31.4-46.7
			c8.2-16.5,15.3-34.1,19.2-52.2c3.9-18.3,6.3-37.7,4.3-56.5c-1.1-10.5-2.4-21.3-5.1-31.5c-2.7-10.1-6.9-19.7-11.2-29.2
			c-6.7-15-16.9-28.9-28.2-40.8c-27.5-28.7-66.1-42.9-105.6-42.1c-20.1,0.4-40.1,4.1-59.9,7.5c-19.4,3.4-37.8,8.5-55.4,17.6
			c-18.1,9.5-34.8,25.2-44.6,43.3c-6.3,11.7-8.6,25.6-5,38.5c3.2,11.6,12.2,24.2,23,29.9c11.6,6.1,25.7,9.2,38.5,5
			C250.6,304.3,262.1,296.8,268.3,285.3L268.3,285.3z"/>
	</g>
</g>
<g>
	<g>
		<g>
			<path class="st1" d="M254.4,174.3c4.9-1.4,9.7-2.5,14.6-3.4c2.4-0.5,4.8-0.9,7.3-1.3c2.4-0.4,4.8-0.8,7.3-1.1
				c9.7-1.4,19.3-2.3,29-2.8c9.6-0.6,19.2-0.8,28.9-0.8s19.2,0.4,28.8,1l47.5,3l-41.2,23c-7.2,4-14.6,7.9-22,11.6
				c-7.5,3.7-15,7.1-22.7,10.4s-15.5,6.2-23.5,8.9c-2,0.7-4,1.4-6,2l-3,0.9l-3.1,0.9c-4.1,1.1-8.3,2.2-12.6,3.1
				c2.9-3.3,5.9-6.4,8.9-9.4l2.3-2.2l2.3-2.2c1.5-1.5,3.1-2.9,4.7-4.3c6.3-5.6,12.8-10.9,19.5-15.9c6.6-5.1,13.4-9.9,20.3-14.5
				c6.9-4.6,13.9-9.1,21-13.3l6.3,26c-9.6-0.3-19.2-0.9-28.7-1.8c-9.6-0.9-19.1-2-28.6-3.5c-9.5-1.5-19-3.3-28.5-5.6
				c-2.4-0.6-4.8-1.2-7.1-1.8c-2.4-0.6-4.7-1.3-7.1-2C263.8,177.7,259.1,176.2,254.4,174.3z"/>
		</g>
		<g>
			<path class="st1" d="M425.4,270.1c-3.1-2.4-5.9-5-8.6-7.6c-1.4-1.3-2.6-2.7-4-4l-3.8-4.1c-4.9-5.5-9.5-11.2-13.7-17.1
				c-8.5-11.8-15.8-24.1-22.4-36.9l26.1-4.1c-2.3,12.7-5.5,25.2-9.7,37.6c-2.1,6.2-4.5,12.3-7.3,18.4c-1.4,3-2.8,6-4.5,9
				c-1.6,3-3.3,6-5.3,8.9c-0.9-3.4-1.5-6.8-2-10.1c-0.5-3.4-0.9-6.7-1.2-10c-0.6-6.6-0.8-13.2-0.8-19.7c0.1-13.1,1.3-25.9,3.3-38.7
				l6.4-40.7l19.8,36.5c6.8,12.6,12.8,25.7,17.6,39.3c2.4,6.8,4.5,13.8,6.3,21l1.2,5.4c0.4,1.8,0.8,3.7,1,5.5
				C424.6,262.4,425.1,266.2,425.4,270.1z"/>
		</g>
		<g>
			<path class="st1" d="M469.4,230.6c-2.5,0.3-4.7,0.3-7,0.2c-2.2-0.1-4.4-0.3-6.5-0.6c-4.2-0.6-8.2-1.5-12-2.7
				c-7.6-2.4-14.6-5.8-21.1-9.9c-6.5-4.1-12.5-9-17.9-14.9c-2.7-2.9-5.2-6.2-7.5-9.7c-1.1-1.8-2.3-3.6-3.3-5.6c-1-2-2-4-2.8-6.4
				c2.5-0.3,4.8-0.3,7-0.2c2.2,0.1,4.4,0.3,6.5,0.6c4.2,0.6,8.2,1.5,12,2.7c7.6,2.4,14.6,5.8,21.1,9.9c6.5,4.2,12.5,9.1,17.9,15
				c2.7,2.9,5.2,6.2,7.5,9.7c1.2,1.8,2.2,3.6,3.3,5.6C467.6,226.1,468.6,228.2,469.4,230.6z"/>
		</g>
	</g>
	<g>
		<g>
			<path class="st1" d="M419.1,189.8c3.2-10.4,7.3-20.9,9.7-31.6c3.7-16.7-2.3-36.2-20.7-40.8c-9.2-2.3-19.4,1.5-24.3,9.9
				c-6.7,11.6-12,24.2-15.5,37.1c-2.9,10.9,3.7,23.9,15,26.4c11.3,2.6,23.3-3.4,26.5-15c0.7-2.5,1.4-5.1,2.2-7.5
				c0.5-1.4,0.9-2.8,1.4-4.1c0.2-0.6,2-5.1,0.8-2.3c-1,2.5,0.4-1,0.6-1.4c0.6-1.3,1.2-2.6,1.9-3.9c1.3-2.6,2.7-5.1,4.1-7.6
				c-8.1,3.3-16.2,6.6-24.3,9.9c-3.7-0.9-7.9-4.7-9-8.5c-0.5-1.8,0.6-6.4-0.5-2.7c-1,3.3-2,6.6-3,9.9c-2.1,6.9-4.3,13.9-6.5,20.8
				c-3.3,10.7,4,23.9,15,26.4C404.3,207.5,415.5,201.3,419.1,189.8L419.1,189.8z"/>
		</g>
	</g>
</g>
<g>
	<g>
		<path class="st2" d="M203,259.8c-1.8,2.6-3.5,5.2-5.3,7.8c-1.7,2.6-2.1,6.7-1.3,9.6c0.8,2.9,3,6,5.7,7.5
			c6.3,3.3,13.2,1.3,17.1-4.5c1.8-2.6,3.5-5.2,5.3-7.8c1.7-2.6,2.1-6.7,1.3-9.6c-0.8-2.9-3-6-5.7-7.5C213.8,252,206.9,254,203,259.8
			L203,259.8z"/>
	</g>
</g>
<g>
	<g>
		<path class="st2" d="M271.9,282.7c0.3,2.5,0.3,5,0,7.5c0.1-1.1,0.3-2.2,0.5-3.3c-0.1,1-0.3,2-0.6,3c-1.5,6.4,2,13.8,8.7,15.4
			c6.4,1.5,13.8-1.9,15.4-8.7c1-4.5,1.6-9.2,1-13.9c-0.4-3.4-1.1-6.3-3.7-8.8c-2.2-2.2-5.7-3.8-8.8-3.7c-3.2,0.1-6.6,1.2-8.8,3.7
			C273.5,276.1,271.5,279.5,271.9,282.7L271.9,282.7z"/>
	</g>
</g>
<g>
	<g>
		<path class="st2" d="M344.7,299.4c-1.4,3.5-2.8,7-4.2,10.5c-1.1,2.8-0.2,7.1,1.3,9.6c1.5,2.6,4.5,5.1,7.5,5.7
			c3.2,0.7,6.8,0.6,9.6-1.3c2.9-1.9,4.5-4.3,5.7-7.5c1.4-3.5,2.8-7,4.2-10.5c1.1-2.8,0.2-7.1-1.3-9.6c-1.5-2.6-4.5-5.1-7.5-5.7
			c-3.2-0.7-6.8-0.6-9.6,1.3C347.5,293.8,346,296.2,344.7,299.4L344.7,299.4z"/>
	</g>
</g>
<g>
	<g>
		<path class="st2" d="M426,319.7c-2.8,3.6-4.6,7.8-6,12c-2,6.2,2.4,13.9,8.7,15.4c6.9,1.6,13.2-2.1,15.4-8.7
			c0.2-0.8,0.5-1.5,0.8-2.3c-0.4,1-0.8,2-1.3,3c1-2.4,2.4-4.7,4-6.8c1.8-2.4,2-6.9,1.3-9.6c-0.8-2.9-3-6-5.7-7.5
			c-2.9-1.5-6.4-2.3-9.6-1.3c-1,0.4-2,0.8-3,1.3C428.6,316.3,427.1,317.8,426,319.7L426,319.7z"/>
	</g>
</g>
<g>
	<g>
		<path class="st2" d="M368,392.2c-6.1,3.7-11.2,8.8-14.9,15c-3.4,5.6-1.4,14,4.5,17.1c6,3.2,13.5,1.5,17.1-4.5
			c0.6-0.9,1.1-2,1.9-2.8c-0.6,0.6-1.8,2.2-0.5,0.7c0.4-0.4,0.8-0.8,1.2-1.2c0.7-0.7,1.5-1.4,2.3-2.1c1.1-1-2.4,1.6-0.6,0.5
			c0.6-0.4,1.1-0.8,1.7-1.1c5.6-3.4,8.2-11.4,4.5-17.1C381.5,391.1,374,388.6,368,392.2L368,392.2z"/>
	</g>
</g>
<g>
	<g>
		<path class="st2" d="M265.9,380.4c0,2,0,4.1,0,6.1c0,3.2,1.4,6.6,3.7,8.8c2.2,2.2,5.7,3.8,8.8,3.7c3.2-0.1,6.6-1.2,8.8-3.7
			s3.7-5.5,3.7-8.8c0-2,0-4.1,0-6.1c0-3.2-1.4-6.6-3.7-8.8c-2.2-2.2-5.7-3.8-8.8-3.7c-3.2,0.1-6.6,1.2-8.8,3.7
			S265.9,377,265.9,380.4L265.9,380.4z"/>
	</g>
</g>
<g>
	<g>
		<path class="st2" d="M189.1,350.7c0,3.2,0,6.4,0,9.6c0,6.5,5.8,12.8,12.5,12.5c6.8-0.3,12.5-5.5,12.5-12.5c0-3.2,0-6.4,0-9.6
			c0-6.5-5.8-12.8-12.5-12.5C194.8,338.5,189.1,343.7,189.1,350.7L189.1,350.7z"/>
	</g>
</g>
<g>
	<g>
		<path class="st2" d="M216.4,434.5c-2.8,3.6-5.2,7.2-6.2,11.7c-1.1,4.6-1,8.9-0.1,13.5c1.2,6.4,9.3,10.7,15.4,8.7
			c6.9-2.2,10.1-8.5,8.7-15.4c-0.5-2.5-0.2,2.5,0.1,0.1c0-0.5,0-1.1,0.1-1.6c-0.3,1.8-0.3,2.3-0.1,1.3c0.1-0.4,0.2-0.8,0.3-1.2
			c0.4-1,0.4-1,0,0c-0.4,1-0.4,1,0.1,0c0.7-1.1,0.5-1-0.6,0.5c2.1-2.7,3.7-5.2,3.7-8.8c0-3.1-1.4-6.7-3.7-8.8
			C229.6,430.4,220.7,429,216.4,434.5L216.4,434.5z"/>
	</g>
</g>
<g>
	<g>
		<path class="st2" d="M301.7,467.4c-1.8,1.2-3.5,2.3-5.2,3.5c-2.7,1.8-4.9,4.3-5.7,7.5c-0.8,3-0.5,7,1.3,9.6c1.7,2.7,4.3,5,7.5,5.7
			c3.2,0.7,6.8,0.6,9.6-1.3c1.8-1.2,3.5-2.3,5.2-3.5c2.7-1.8,4.9-4.3,5.7-7.5c0.8-3,0.5-7-1.3-9.6c-1.7-2.7-4.3-5-7.5-5.7
			C308.2,465.4,304.5,465.5,301.7,467.4L301.7,467.4z"/>
	</g>
</g>
<g>
	<g>
		<path class="st2" d="M224.1,529.5c-1.7,1.5-3.1,3.4-4.2,5.3c-1.1,2-2.1,4.1-2.5,6.3c-0.6,3.3-0.5,6.6,1.3,9.6
			c1.5,2.6,4.5,5.1,7.5,5.7c3.2,0.7,6.8,0.6,9.6-1.3c2.6-1.7,5.1-4.3,5.7-7.5c0.1-0.8,0.4-1.5,0.6-2.2c-0.4,1-0.8,2-1.3,3
			c0.4-0.8,0.8-1.6,1.3-2.3c-0.6,0.8-1.3,1.7-1.9,2.5c0.5-0.6,1-1.1,1.6-1.7c2.3-2,3.7-5.8,3.7-8.8c0-3.1-1.4-6.7-3.7-8.8
			c-2.4-2.2-5.5-3.8-8.8-3.7C229.5,526,226.7,527.2,224.1,529.5L224.1,529.5z"/>
	</g>
</g>
</svg>
