<?xml version="1.0" encoding="utf-8"?>
<!-- Generator: Adobe Illustrator 24.3.0, SVG Export Plug-In . SVG Version: 6.00 Build 0)  -->
<svg version="1.1" id="Layer_1" xmlns="http://www.w3.org/2000/svg" xmlns:xlink="http://www.w3.org/1999/xlink" x="0px" y="0px"
	 viewBox="0 0 314.18 407.13" style="enable-background:new 0 0 314.18 407.13;" xml:space="preserve">
<style type="text/css">
	.st0{fill:#E3E473;}
</style>
<g>
	<g>
		<path class="st0" d="M128.95,79.39c8.76,16.99,7.94,37.88-0.78,54.71c-8.62,16.62-23.61,28.54-40.9,35.25
			c-10.84,4.21-22.22,6.76-33.57,9.16c0.44,1.61,0.89,3.21,1.33,4.82c21.17-8.14,44.47-3.12,65.57,2.62
			c10.31,2.8,20.26,6.5,27.84,14.32c6.69,6.9,11.15,15.74,13.86,24.9c3.77,12.73,4.45,26.06,5.12,39.24
			c1.64-0.22,3.27-0.44,4.91-0.66c-3.66-20.29-1.21-41.54,6.66-60.57c7.27-17.58,19.54-33.1,34.79-44.45
			c8.49-6.32,17.87-11.44,27.83-15.03c-0.64-1.52-1.28-3.05-1.93-4.57c-9.89,4.39-20.03,8.23-30.39,11.33
			c-5.17,1.55-10.4,2.91-15.67,4.05c-5.06,1.1-10.2,2.08-15.4,1.79c-4.57-0.26-8.92-1.82-12.51-4.69c-3.52-2.81-6.29-6.42-8.69-10.2
			c-5.35-8.43-9.62-17.67-12.99-27.05c-3.91-10.87-6.63-22.19-7.97-33.66c-0.16-1.34-1.04-2.5-2.5-2.5c-1.35,0-2.51,1.14-2.5,2.5
			c0.15,21.09,5.92,43.3-2.01,63.68c-3.61,9.28-10.54,16.33-18.19,22.44c-8.04,6.41-16.67,12.12-25.59,17.2
			c-10.15,5.79-20.76,10.72-31.74,14.72c-2.98,1.09-1.84,5.63,1.33,4.82c20.1-5.1,41.44-9.86,61.96-4.22
			c8.81,2.42,16.86,6.82,23.46,13.14c6.08,5.82,10.79,12.88,14.5,20.4c4.3,8.71,7.2,18.06,9.31,27.52c1.61-0.44,3.21-0.89,4.82-1.33
			c-6.03-15.56-6.53-32.86-1.97-48.87c2.3-8.06,5.86-15.71,10.6-22.61c5.06-7.36,11.59-13.56,18.7-18.93
			c8.71-6.58,18.12-12.14,27.1-18.33c1.11-0.77,1.61-2.19,0.9-3.42c-0.64-1.1-2.3-1.67-3.42-0.9
			c-16.08,11.1-33.76,20.53-45.73,36.46c-10.5,13.97-16.09,31.54-16.21,48.97c-0.07,9.86,1.64,19.76,5.2,28.96
			c1.15,2.96,5.54,1.87,4.82-1.33c-3.87-17.35-10.6-34.94-23.01-48.04c-6.6-6.97-14.75-12.18-23.82-15.31
			c-9.8-3.39-20.4-4.36-30.72-3.79c-12.84,0.71-25.41,3.65-37.84,6.8c0.44,1.61,0.89,3.21,1.33,4.82
			c20.18-7.36,39.26-17.68,56.34-30.72c8.2-6.26,16.1-13.28,20.73-22.68c4.6-9.32,6.14-19.8,6.25-30.1
			c0.13-13.16-2.03-26.21-2.12-39.36c-1.67,0-3.33,0-5,0c2.51,21.48,9.33,42.6,20.41,61.22c4.92,8.27,11.61,16.38,21.43,18.65
			c5.49,1.26,11.13,0.79,16.63-0.16c5.59-0.96,11.12-2.33,16.58-3.83c12.36-3.41,24.39-7.93,36.1-13.13
			c2.57-1.14,0.74-5.53-1.93-4.57c-18.53,6.67-35.24,18.21-47.99,33.24c-13.6,16.03-22.47,35.76-25.42,56.59
			c-1.71,12.1-1.53,24.34,0.64,36.37c0.5,2.77,5.05,2.14,4.91-0.66c-1.15-22.58-2.82-46.83-17.98-64.94
			c-3.32-3.97-7.26-7.43-11.67-10.14c-4.98-3.06-10.53-5.16-16.11-6.85c-11.19-3.4-22.76-6.11-34.37-7.55
			c-12.92-1.6-26.32-1.14-38.59,3.58c-2.97,1.14-1.87,5.5,1.33,4.82c20.5-4.35,41.39-9.54,58-23.02
			c15.16-12.31,25.43-30.27,26.92-49.86c0.88-11.55-1.38-23.28-6.69-33.58C131.79,74,127.48,76.53,128.95,79.39L128.95,79.39z"/>
	</g>
</g>
</svg>
