<?xml version="1.0" encoding="utf-8"?>
<!-- Generator: Adobe Illustrator 24.3.0, SVG Export Plug-In . SVG Version: 6.00 Build 0)  -->
<svg version="1.1" id="Layer_1" xmlns="http://www.w3.org/2000/svg" xmlns:xlink="http://www.w3.org/1999/xlink" x="0px" y="0px"
	 viewBox="0 0 595.28 841.89" style="enable-background:new 0 0 595.28 841.89;" xml:space="preserve">
<style type="text/css">
	.st0{clip-path:url(#SVGID_2_);fill:#CED849;}
	.st1{clip-path:url(#SVGID_2_);}
	.st2{fill:#E3EBB8;}
	.st3{fill:#575656;}
</style>
<g>
	<defs>
		<path id="SVGID_1_" d="M277.02,247.35l-105.8,239.47c-4.33,9.81-1.31,23.81,6.75,31.09c34.6,31.27,128.99,95.65,243.46-0.01
			c8.96-7.49,12.21-22.15,7.26-32.54L314.92,246.83C304.16,224.29,287.11,224.52,277.02,247.35z"/>
	</defs>
	<clipPath id="SVGID_2_">
		<use xlink:href="#SVGID_1_"  style="overflow:visible;"/>
	</clipPath>
	<path class="st0" d="M265.3,273.88l-94.08,212.94c-4.33,9.81-1.31,23.81,6.75,31.09c34.6,31.27,128.99,95.65,243.46-0.01
		c8.96-7.49,12.21-22.15,7.26-32.54L327.41,273.03C309.79,236.07,281.84,236.46,265.3,273.88z"/>
	<g class="st1">
		<path class="st2" d="M141.41,487.49c25.23,40,68.97,62.69,114.12,72.54c12.45,2.72,25.09,4.52,37.74,6.03
			c12.11,1.45,24.31,2.28,36.47,0.92c24.96-2.78,49.61-11.89,72.43-22.1c25.66-11.49,46.59-30.09,57.07-56.48
			c6.54-16.47-12.75-33.12-28.29-28.29c-23.6,7.33-40.72,23.34-60.56,37.09c-4.68,3.24-9.53,6.21-14.54,8.91
			c-2.57,1.38-5.19,2.7-7.82,3.95c-1.32,0.63-2.65,1.24-3.99,1.84c-0.8,0.36-1.61,0.72-2.41,1.06c2.8-1.17,3-1.26,0.62-0.28
			c-11.26,4.47-22.73,8.27-34.3,11.84c-12.27,3.79-24.55,7.58-36.95,10.94c-6.14,1.66-12.32,3.21-18.54,4.56
			c-3.11,0.67-6.23,1.3-9.36,1.86c-1.88,0.34-3.76,0.63-5.65,0.95c-6.31,1.08,4.91-0.49-1.46,0.23c-6.04,0.68-12.1,1.17-18.19,1.06
			c-1.82-0.03-3.63-0.21-5.44-0.26c-1.12-0.03-4.59,0,0.72,0.21c-3.42-0.13-7.29-1.41-10.53-2.48c-0.29-0.09-5.43-2.22-2.05-0.68
			c3.4,1.55-1.66-0.89-1.89-1.01c-2.52-1.31-4.97-2.79-7.33-4.37c-1.19-0.79-2.32-1.66-3.49-2.46c-2.88-1.98,4.12,3.58-0.06-0.09
			c-2.55-2.24-5.13-4.42-7.6-6.77c-4.04-3.85-7.89-7.91-11.51-12.15c-0.72-0.85-1.44-1.7-2.14-2.56c-0.35-0.43-0.7-0.87-1.05-1.3
			c-1.56-1.98-1.39-1.74,0.52,0.7c0.32-0.75-5.26-7.4-5.77-8.17c-3.05-4.62-5.87-9.4-8.44-14.32c-1.28-2.45-2.49-4.94-3.64-7.45
			c-0.39-0.85-0.81-2.36-1.35-3.03c1.24,2.95,1.38,3.26,0.42,0.9c-0.31-0.77-0.6-1.54-0.89-2.32c-0.48-1.28-0.86-2.63-1.41-3.89
			c-0.16-0.5-0.31-0.99-0.47-1.49c1.05,10.81-2.07,17.59-9.37,20.33c-2.31,1.92-0.95,0.49,0.83,0.09c1.14-0.26,2.3-0.48,3.46-0.7
			c0.58-0.11,1.16-0.21,1.74-0.32c2.62-0.42,2.33-0.39-0.85,0.11c-0.02-0.13,3.07-0.11,3.5-0.17c5.8-0.76-5.03-0.05,0.73-0.01
			c2.06,0.68,2.21,0.68,0.46,0.01c-1.7-0.75-1.61-0.64,0.26,0.32c1.32,0.95,3.03,1.66,4.17,2.84c-0.44-0.45-3.93-3.08-0.68-0.47
			c3.21,2.58,6.49,5.09,9.78,7.56c4.77,3.59,9.67,7,14.7,10.22c40.15,25.74,88.93,41.04,136.85,39.04
			c29.53-1.23,57.3-9.45,84.5-20.52c27.98-11.39,55.72-23.36,83.57-35.07c-9.43-5.35-18.86-10.71-28.29-16.06
			c-1.16-6.34-0.37-1.42-0.25,0.13c0.3,3.84-0.72-1.92,0.31-1.46c0.21,0.1-0.86,3.41-0.98,3.81c-1.31,4.09-1.17,0.11,0.22-0.33
			c-0.21,0.07-1.29,2.39-1.55,2.83c-0.29,0.46-0.57,0.91-0.86,1.37c-1.44,2.05-1.2,1.8,0.7-0.73c-0.58,2.15-4.22,4.34-5.77,5.87
			c-3.96,3.89,4-2.45-0.67,0.56c-0.95,0.61-1.86,1.28-2.81,1.89c-2.39,1.54-4.86,2.96-7.36,4.31c-5.13,2.76-10.41,5.21-15.68,7.68
			c-5.65,2.65-11.31,5.28-16.99,7.85c-2.84,1.29-5.69,2.56-8.55,3.81c-1.14,0.5-2.29,1-3.43,1.5c-1.15,0.5-2.29,0.99-3.44,1.48
			c2.33-0.98,2.73-1.15,1.18-0.5c-11.57,4.72-23.19,9.23-35.1,13.05c-11.8,3.78-23.8,6.91-35.96,9.29
			c-5.64,1.11-11.6,2.58-17.35,2.91c5.31-0.3,1.08-0.16-0.32,0.01c-1.53,0.18-3.07,0.35-4.6,0.51c-3.38,0.35-6.76,0.65-10.15,0.89
			c-12.33,0.89-24.7,1.06-37.05,0.53c-5.86-0.25-11.72-0.67-17.56-1.24c-3.04-0.3-6.2-0.5-9.2-1.04c5.28,0.95,1.04,0.13-0.31-0.07
			c-2.14-0.32-4.27-0.65-6.4-1.02c-13.38-2.27-26.67-5.34-39.62-9.43c-3.54-1.12-7.04-2.32-10.51-3.63
			c-1.01-0.38-2.61-0.77-3.45-1.35c4.05,2.8,0.44,0.21-0.9-0.43c-1.3-0.62-2.57-1.28-3.81-2.01c-0.41-0.25-0.82-0.5-1.23-0.76
			c-2.02-1.39-1.61-1.04,1.24,1.06c0.08,0.14-1.79-1.91-1.94-1.92c2.14,2.98,2.6,3.45,1.39,1.42c1.29,2.01,1.95,4.21,1.96,6.61
			c-5.63,7.39-11.26,14.79-16.89,22.18c0.25-0.07,5.54-1.78,2-0.65c-3.61,1.16,1.43-0.44,2.1,0.27c-2.93-0.48-3.53-0.57-1.78-0.26
			c0.87,0.15,1.74,0.33,2.6,0.54c1.16,0.27,2.31,0.59,3.45,0.93c6.22,1.85,12.27,4.38,18.3,6.74c2.99,1.17,5.98,2.36,8.95,3.57
			c1.49,0.6,2.97,1.22,4.46,1.82c4.08,1.67-1.82-0.81,0.72,0.29c6.19,2.67,12.34,5.4,18.43,8.29c10.86,5.13,25.32,3.38,31.47-8.25
			c5.4-10.22,3.36-25.98-8.25-31.47c-14.85-7.02-30.04-13.35-45.35-19.31c-15.85-6.17-32.23-12-49.33-6.88
			c-9.25,2.77-17.46,12.02-16.89,22.18c1.04,18.57,13.63,30.44,29.85,37.37c14.11,6.03,28.58,10.6,43.54,14.01
			c28.72,6.54,58.52,9.56,87.96,8.54c29.13-1.01,58.43-5.58,86.37-13.95c28.21-8.45,55.28-20.49,81.9-32.97
			c14.26-6.69,28.63-13.5,40.02-24.72c14.64-14.43,21.23-33.75,17.54-53.95c-2.04-11.16-17.53-20.59-28.29-16.06
			c-26.14,10.99-52.24,22.11-78.44,32.97c-12.51,5.18-25.13,10.14-38.11,14.01c-6.42,1.91-12.93,3.56-19.51,4.81
			c-2.42,0.46-5.59,1.46-8.06,1.34c6.02,0.27,1.35-0.2-0.36-0.02c-1.62,0.17-3.24,0.32-4.86,0.44c-11.89,0.93-23.87,0.66-35.72-0.66
			c-0.54-0.06-1.08-0.13-1.62-0.19c-2.58-0.32-2.15-0.26,1.27,0.18c-1.21,0.12-2.81-0.43-4.03-0.63c-2.95-0.49-5.89-1.04-8.82-1.65
			c-5.86-1.23-11.68-2.71-17.42-4.42c-5.75-1.71-11.44-3.66-17.04-5.83c-1.02-0.39-2.03-0.81-3.05-1.21
			c-5.29-2.03,4.61,2.11-0.55-0.22c-2.99-1.35-5.98-2.69-8.93-4.12c-10.78-5.25-21.15-11.33-31.02-18.13
			c-2.45-1.69-4.87-3.43-7.26-5.22c-1.17-0.87-4.43-2.79,0.15,0.15c-1.37-0.88-2.63-2.09-3.91-3.1
			c-7.18-5.65-14.42-10.82-23.56-12.81c-9.46-2.06-18.49-1.01-27.89,0.76c-9.43,1.78-18.5,5.72-23.79,14.17
			c-9.85,15.74,0.53,34.86,7.96,49.48c6.19,12.17,14.04,23.32,22.68,33.87c17.39,21.23,40.82,40.58,68.7,44.65
			c30.09,4.38,60.95-3.11,89.77-11.43c29.34-8.46,59.61-16.9,86.64-31.42c12.16-6.53,22.87-15.05,33.83-23.37
			c5.08-3.86,10.24-7.65,15.68-11c2.69-1.66,5.45-3.22,8.29-4.62c0.47-0.23,0.95-0.46,1.42-0.69c2.29-1.03,1.91-0.89-1.14,0.42
			c1.17-1.13,4.49-1.62,6.03-2.1c-9.43-9.43-18.86-18.86-28.29-28.29c2.33-5.86-0.13,0.05-0.95,1.54c-1.14,2.06-2.48,3.93-3.74,5.91
			c-1.65,2.6,2.81-3.23,0.74-0.94c-0.7,0.77-1.35,1.6-2.05,2.37c-1.59,1.76-3.26,3.44-5,5.04c-0.97,0.9-1.97,1.76-2.99,2.61
			c-0.66,0.55-3.49,2.46-0.79,0.68c2.87-1.89-2.87,1.91-3.52,2.34c-4.36,2.84-8.94,5.34-13.63,7.59c-1.06,0.51-2.13,1.01-3.2,1.5
			c-0.69,0.32-4.19,1.87-1.31,0.61c2.88-1.26-0.64,0.25-1.35,0.53c-1.1,0.44-2.2,0.87-3.31,1.29c-4.98,1.9-10.02,3.66-15.07,5.37
			c-10.04,3.4-20.03,6.53-30.44,8.55c-1.38,0.27-3.54,1.33,0.51-0.06c-0.98,0.34-2.89,0.27-3.83,0.33
			c-2.55,0.18-5.12,0.26-7.68,0.27c-5.78,0.02-11.56-0.35-17.31-0.9c-2.56-0.25-5.11-0.54-7.66-0.85c-1.19-0.14-2.47-0.21-3.63-0.46
			c0.73,0.16,5.03,0.73,0.68,0.07c-5.43-0.83-10.85-1.71-16.24-2.77c-10.14-2-20.18-4.55-29.98-7.84c-2.3-0.77-4.58-1.58-6.85-2.44
			c-1.13-0.43-2.26-0.88-3.39-1.31c-4.08-1.57-0.2,0.07,0.46,0.22c-4.46-1.06-9.26-4.28-13.28-6.47c-4.65-2.54-9.17-5.32-13.53-8.33
			c-0.87-0.6-1.73-1.21-2.58-1.83c-0.63-0.46-4.06-3.43-1.46-1.06c2.43,2.2-0.11-0.14-0.75-0.67c-1.01-0.84-2.01-1.69-2.99-2.56
			c-3.92-3.46-7.62-7.16-11.05-11.1c-0.68-0.79-1.34-1.59-2.02-2.38c-2.97-3.49,2.59,3.82-0.23-0.27c-1.48-2.15-2.97-4.26-4.36-6.46
			c-6.41-10.17-20.78-15.14-31.47-8.25C139.48,462.59,134.54,476.61,141.41,487.49L141.41,487.49z"/>
	</g>
</g>
<g>
	<g>
		<g>
			<path class="st3" d="M297.5,300.71c-1.78,2.15-2.53,4.61-1.98,7.38c0.46,2.29,1.91,4.32,3.95,5.48c2.24,1.28,4.74,0.39,6.16-1.61
				c1.98-2.81,1.95-6.85,0.14-9.72c-1.25-1.99-4.07-2.96-6.16-1.61c-1.99,1.29-2.96,4.03-1.61,6.16c0.59,0.94-0.25-0.87,0.13,0.17
				c0.09,0.42,0.11,0.45,0.04,0.08c-0.04-0.37-0.05-0.34-0.03,0.09c0.15-0.94,0.17-0.06-0.08,0.16c0.06-0.15,0.12-0.29,0.18-0.44
				c-0.11,0.2-0.23,0.4-0.37,0.58c2.05-0.54,4.1-1.08,6.16-1.61c-0.51-0.29,0.06,0.08,0.22,0.23c-0.52-0.48,0.21,0.21,0.16,0.28
				c0,0-0.27-0.48-0.28-0.48c0.13-0.01,0.36,1.07,0.14,0.15c-0.14-0.59,0.17,0.95,0.07,0.36c-0.02-0.13,0.03-0.86-0.02-0.1
				c-0.05,0.72,0.26-0.26-0.08,0.34c-0.5,0.88,0.77-0.85-0.35,0.5c1.5-1.81,1.91-4.61,0-6.36
				C302.2,299.19,299.1,298.77,297.5,300.71L297.5,300.71z"/>
		</g>
	</g>
	<g>
		<g>
			<path class="st3" d="M271.3,334.02c-0.82,2.52-2.5,4.5-2.5,7.3c0,2.7,1.29,5.57,3.73,6.91c2.74,1.5,6.17,0.82,8.27-1.45
				c2.46-2.66,2.32-6.08,1.74-9.42c-0.41-2.4-3.36-3.74-5.54-3.14c-2.53,0.7-3.56,3.13-3.14,5.54c-0.01-0.05,0.25,1.38,0.11,1.34
				c-0.01,0,0.1-0.49,0.34-0.45c0.48-0.59,1.16-0.76,2.04-0.49c0.33,0.18,0.67,0.36,1,0.54c0.36,0.38,0.24,0.42,0.43,0.85
				c0-0.15,0-0.29,0-0.44c-0.06,0.44-0.04,0.46,0.07,0.05c0.13-0.3,0.26-0.58,0.41-0.88c0.63-1.27,1.27-2.51,1.7-3.86
				c0.75-2.31-0.88-4.91-3.14-5.54C274.4,330.21,272.06,331.7,271.3,334.02L271.3,334.02z"/>
		</g>
	</g>
	<g>
		<g>
			<path class="st3" d="M312.17,340c-0.53,2.99-0.92,5.96,0.34,8.83c1.07,2.44,3.28,4.63,6.01,5.02c2.16,0.31,5.16-0.5,5.54-3.14
				c0.58-4.03-0.33-7.82-3.31-10.74c-4.14-4.06-10.51,2.3-6.36,6.36c0.4,0.4,0.22,0.15,0.42,0.43c0.06,0.09,0.47,0.91,0.31,0.5
				c0.11,0.3,0.21,0.65,0.25,0.97c-0.09-0.73-0.09,0.83,0.01,0.09c1.85-1.05,3.69-2.1,5.54-3.14c-1.29-0.18,0.08,0.21-0.03,0.25
				c-0.38-0.38-0.43-0.44-0.16-0.18c0.09,0.3,0.08,0.3,0,0c0.08-0.29-0.1-0.86-0.09-1.21c0.03-0.56,0.12-1.09,0.22-1.64
				c0.43-2.39-0.65-4.85-3.14-5.54C315.53,336.26,312.6,337.6,312.17,340L312.17,340z"/>
		</g>
	</g>
	<g>
		<g>
			<path class="st3" d="M288.26,382.36c-0.04,2.66-0.24,5.46,0.17,8.09c0.48,3.07,2.94,5.51,6.16,5.42
				c2.53-0.07,4.98-1.61,6.24-3.79c1.59-2.73,0.7-5.51,0.49-8.41c-0.17-2.42-1.94-4.5-4.5-4.5c-2.3,0-4.68,2.06-4.5,4.5
				c0.07,0.91,0.19,1.82,0.34,2.72c0.05,0.31,0.01,0.96,0.18,1.23c0.24,0.41,0.15,0.17,0.48-0.4c0.11-0.07,0.22-0.15,0.33-0.22
				c-0.46,0.26-0.43,0.25,0.09-0.03c1.48-0.36,2.44,0.09,2.89,1.35c0.56,1.25,0.78,1.44,0.66,0.58c0.18-0.52-0.03-1.4-0.03-1.97
				c-0.02-1.53-0.01-3.06,0.01-4.59c0.04-2.43-2.09-4.5-4.5-4.5C290.29,377.86,288.29,379.92,288.26,382.36L288.26,382.36z"/>
		</g>
	</g>
	<g>
		<g>
			<path class="st3" d="M339.33,384.32c0.16,4.5,2.3,12.33,8,12.33c3.59,0,5.55-3.27,5.67-6.5c0.1-2.75-0.96-5.03-2.63-7.14
				c-1.51-1.91-4.79-1.58-6.36,0c-1.88,1.88-1.51,4.45,0,6.36c-0.25-0.26-0.22-0.17,0.07,0.28c-0.18-0.33-0.19-0.24-0.01,0.28
				c-0.08-0.41-0.1-0.33-0.07,0.22c-0.02-0.48,0.16-0.9,0.54-1.27c0.66-0.39,1.32-0.77,1.99-1.16c-0.13,0.03-0.26,0.06-0.39,0.09
				c0.8,0,1.6,0,2.39,0c0.99,0.24,1.15,1.05,0.78,0.19c-0.23-0.53-0.4-0.81-0.49-1.06c-0.41-1.21-0.46-1.62-0.5-2.62
				c-0.08-2.43-2.01-4.5-4.5-4.5C341.46,379.82,339.25,381.88,339.33,384.32L339.33,384.32z"/>
		</g>
	</g>
	<g>
		<g>
			<path class="st3" d="M246.47,399.94c-0.19-1.01-0.29,0.32-0.42,0.78c-0.16,0.56-0.27,1.09-0.34,1.67
				c-0.15,1.21-0.06,2.39,0.34,3.56c1.02,2.99,4.07,4.83,7.2,4.03c5.59-1.44,5.79-9.31,5.34-13.87c-0.24-2.42-1.9-4.5-4.5-4.5
				c-2.25,0-4.74,2.07-4.5,4.5c0.15,1.52,0.22,3.06,0.05,4.59c-0.06,0.5-0.13,0.99-0.26,1.48c-0.13,0.51,0.66-0.47-0.12,0.13
				c0.66-0.39,1.32-0.77,1.99-1.16c2.13,0.07,3.25,0.79,3.35,2.16c0.03,0.15,0.02,0.3-0.04,0.45c0.28-0.33,0.37-1.19,0.48-1.6
				c0.43-1.6,0.43-2.99,0.12-4.61c-0.46-2.39-3.33-3.75-5.54-3.14C247.11,395.09,246.01,397.55,246.47,399.94L246.47,399.94z"/>
		</g>
	</g>
	<g>
		<g>
			<path class="st3" d="M318.34,436.28c0.74-0.23-1.15,0.01-0.39,0.05c-0.26-0.03-0.53-0.06-0.79-0.09c0.31,0.1,0.26,0.08-0.15-0.08
				c-0.4-0.19-0.46-0.2-0.17-0.03c-0.19-0.15-0.39-0.3-0.58-0.44c0.58,0.48-0.58-0.89-0.21-0.25c-0.23-0.33-0.34-0.7-0.35-1.09
				c-0.04-0.47-0.05-0.53-0.04-0.19c0.03-0.27,0.07-0.54,0.1-0.81c0.35-0.73,0.44-0.94,0.27-0.63c-0.26,0.43,0.8-0.83,0.28-0.37
				c0.64-0.46,0.81-0.59,0.52-0.4c-0.08,0.06-0.17,0.1-0.26,0.15c0.24-0.1,0.47-0.21,0.71-0.31c-0.32,0.08-0.25,0.07,0.21-0.01
				c0.47-0.04,0.54-0.06,0.21-0.06c0.27,0.03,0.54,0.07,0.81,0.1c0.72,0.35,0.93,0.44,0.62,0.27c-0.31-0.18-0.13-0.04,0.53,0.43
				c-0.52-0.47,0.59,0.97,0.27,0.31c0.1,0.24,0.21,0.48,0.31,0.72c-0.08-0.32-0.08-0.24,0,0.23c0.11,0.88,0.08,0.22,0.05,0.03
				c-0.15,0.85-0.17,1.09-0.08,0.73c0.1-0.34,0-0.13-0.29,0.64c0.34-0.62-0.79,0.84-0.24,0.32c1.72-1.61,1.75-4.76,0-6.36
				c-1.85-1.69-4.53-1.72-6.36,0c-2.28,2.14-2.59,5.75-1.07,8.4c1.79,3.12,5.79,3.94,8.87,2.33c3.2-1.68,4.37-5.61,2.8-8.8
				c-1.4-2.83-4.93-4.41-7.96-3.47c-2.24,0.7-3.91,3.17-3.14,5.54C313.54,435.39,315.93,437.02,318.34,436.28L318.34,436.28z"/>
		</g>
	</g>
	<g>
		<g>
			<path class="st3" d="M266.99,431.9c1.22,2.78-0.33,5.75-2.49,7.46c2.36,0.3,4.71,0.61,7.07,0.91c-0.73-1.59-0.53-3.87,0.56-5.27
				c1.5-1.91,1.86-4.5,0-6.36c-1.56-1.56-4.85-1.92-6.36,0c-3.82,4.85-4.56,10.55-1.97,16.17c1.34,2.9,5.03,2.52,7.07,0.91
				c5.59-4.43,6.66-12.1,3.9-18.37c-0.98-2.22-4.23-2.74-6.16-1.61C266.31,427.08,266,429.66,266.99,431.9L266.99,431.9z"/>
		</g>
	</g>
	<g>
		<g>
			<path class="st3" d="M351.96,443.1c0.87,3,2.95,5.74,5.8,7.11c2.04,0.99,4.37,0.7,5.81-1.16c1.35-1.74,1.26-4.32-0.35-5.91
				c-1.05-1.03-2.1-2.06-3.15-3.1c-1.68-1.65-4.71-1.8-6.36,0c-1.64,1.78-1.79,4.6,0,6.36c1.05,1.03,2.1,2.06,3.15,3.1
				c1.82-2.36,3.64-4.71,5.45-7.07c-0.3-0.14-0.82-0.61-1.12-0.65c0.25,0.04,0.79,0.67,0.21,0.12c-0.16-0.15-0.3-0.31-0.45-0.47
				c-0.42-0.45,0.18,0.14,0.22,0.3c-0.05-0.17-0.25-0.39-0.34-0.55c-0.1-0.17-0.16-0.44-0.29-0.58c0.09,0.2,0.17,0.4,0.26,0.59
				c-0.06-0.16-0.11-0.33-0.15-0.5c-0.65-2.26-3.2-3.9-5.54-3.14C352.81,438.31,351.26,440.68,351.96,443.1L351.96,443.1z"/>
		</g>
	</g>
	<g>
		<g>
			<path class="st3" d="M298.09,456.92c-2.5,0.94-4.99,2.07-6.39,4.49c-1.48,2.55-1.34,6.21,0.79,8.38
				c2.54,2.59,6.43,2.47,9.11,0.18c2.27-1.93,2.78-4.84,2.78-7.67c0-2.35-2.07-4.61-4.5-4.5c-2.44,0.11-4.5,1.98-4.5,4.5
				c0,0.53,0.02,1.08-0.05,1.61c0.07-0.54,0.05-0.55-0.06-0.03c0.08-0.29,0.24-0.53,0.47-0.72c-0.48,0.55,0.32-0.21,0.61-0.3
				c1.35-0.44,2.96,0.49,3.31,1.83c0.06,0.74,0.08,0.86,0.06,0.36c-0.13,0.72-0.13,0.83-0.02,0.35c-0.08,0.23-0.88,1.43-0.32,0.7
				c-0.47,0.33-0.5,0.35-0.08,0.07c0.2-0.12,0.41-0.24,0.62-0.34c0.46-0.21,0.43-0.2-0.09,0.02c0.22-0.09,0.44-0.17,0.67-0.25
				c2.2-0.82,3.94-3.08,3.14-5.54C302.93,457.91,300.45,456.04,298.09,456.92L298.09,456.92z"/>
		</g>
	</g>
	<g>
		<g>
			<path class="st3" d="M222.78,436.4c-0.74,1.11-1.46,2.22-2.17,3.35c-0.76,1.22-1.71,2.52-2.06,3.93
				c-0.89,3.57,1.75,6.94,5.43,6.91c6.09-0.05,8.88-7.48,8.49-12.6c-0.18-2.34-1.94-4.61-4.5-4.5c-2.28,0.1-4.69,1.99-4.5,4.5
				c0.05,0.64,0.09,1.31,0,1.95c0.08-0.59-0.29,1-0.36,1.18c0.19-0.53-0.36,0.7-0.36,0.7c-0.34,0.5-0.35,0.55-0.02,0.14
				c0.52-0.35,0.56-0.39,0.14-0.12c0.34-0.2,0.71-0.28,1.1-0.25c1.24,4.95,2.39,6.38,3.44,4.29c0.32-0.41,0.56-0.92,0.83-1.36
				c0.75-1.21,1.52-2.4,2.31-3.58c1.35-2.02,0.39-4.98-1.61-6.16C226.73,433.49,224.13,434.37,222.78,436.4L222.78,436.4z"/>
		</g>
	</g>
	<g>
		<g>
			<path class="st3" d="M376.73,413.11c0-0.02,0-0.04,0-0.06c-0.05,0.4-0.11,0.8-0.16,1.2c0-0.02,0.01-0.03,0.01-0.05
				c-0.15,0.36-0.3,0.72-0.45,1.07c0.01-0.03,0.03-0.06,0.05-0.08c-0.23,0.3-0.47,0.61-0.7,0.91c0.01-0.01,0.02-0.02,0.03-0.03
				c-0.3,0.23-0.61,0.47-0.91,0.7c0.01-0.01,0.03-0.02,0.04-0.02c-0.36,0.15-0.72,0.3-1.07,0.45c0.03-0.01,0.06-0.02,0.09-0.03
				c-0.4,0.05-0.8,0.11-1.2,0.16c0.06-0.01,0.11-0.01,0.16,0c-0.4-0.05-0.8-0.11-1.2-0.16c0.06,0.01,0.11,0.03,0.17,0.05
				c-0.36-0.15-0.72-0.3-1.07-0.45c0.06,0.03,0.1,0.05,0.15,0.09c-0.3-0.23-0.61-0.47-0.91-0.7c0.05,0.04,0.08,0.07,0.12,0.12
				c-0.23-0.3-0.47-0.61-0.7-0.91c0.01,0.02,0.02,0.03,0.03,0.05c-0.15-0.36-0.3-0.72-0.45-1.07c0.02,0.03,0.03,0.07,0.03,0.1
				c-0.05-0.4-0.11-0.8-0.16-1.2c0.01,0.04,0.01,0.07,0,0.11c0.05-0.4,0.11-0.8,0.16-1.2c-0.01,0.02-0.01,0.04-0.02,0.06
				c0.15-0.36,0.3-0.72,0.45-1.07c-0.02,0.05-0.04,0.09-0.07,0.13c0.23-0.3,0.47-0.61,0.7-0.91c-0.03,0.04-0.06,0.07-0.1,0.1
				c0.3-0.23,0.61-0.47,0.91-0.7c-0.04,0.03-0.08,0.06-0.12,0.08c0.36-0.15,0.72-0.3,1.07-0.45c-0.07,0.03-0.14,0.05-0.21,0.07
				c0.4-0.05,0.8-0.11,1.2-0.16c-0.11,0.01-0.2,0.01-0.31,0c0.4,0.05,0.8,0.11,1.2,0.16c-0.08-0.02-0.15-0.04-0.23-0.07
				c0.36,0.15,0.72,0.3,1.07,0.45c-0.07-0.04-0.14-0.07-0.21-0.12c0.3,0.23,0.61,0.47,0.91,0.7c-0.07-0.06-0.12-0.12-0.18-0.19
				c0.23,0.3,0.47,0.61,0.7,0.91c-0.06-0.09-0.11-0.18-0.16-0.28c0.15,0.36,0.3,0.72,0.45,1.07c-0.06-0.17-0.11-0.35-0.13-0.53
				c0.05,0.4,0.11,0.8,0.16,1.2c-0.03-0.22-0.04-0.44-0.04-0.67c-0.02-1.17-0.49-2.35-1.32-3.18c-0.78-0.78-2.06-1.37-3.18-1.32
				c-1.16,0.05-2.37,0.43-3.18,1.32c-0.8,0.87-1.34,1.97-1.32,3.18c0.02,0.76,0.07,1.56,0.3,2.29c0.43,1.35,1.25,2.55,2.47,3.29
				c0.86,0.52,1.9,0.81,2.91,0.79c1.36-0.03,2.76-0.56,3.69-1.57c1.21-1.32,1.65-3.02,1.22-4.76c-0.31-1.24-1.27-2.37-2.38-2.97
				c-1.16-0.63-2.62-0.9-3.89-0.47c-1.17,0.39-2.08,1.09-2.76,2.12c-0.52,0.79-0.61,1.55-0.68,2.46c-0.02,0.62,0.11,1.2,0.39,1.73
				c0.18,0.56,0.49,1.04,0.93,1.45c0.78,0.78,2.06,1.37,3.18,1.32c1.16-0.05,2.37-0.43,3.18-1.32c0.23-0.3,0.47-0.61,0.7-0.91
				C376.52,414.68,376.72,413.93,376.73,413.11L376.73,413.11z"/>
		</g>
	</g>
</g>
</svg>
