<?xml version="1.0" encoding="utf-8"?>
<!-- Generator: Adobe Illustrator 24.3.0, SVG Export Plug-In . SVG Version: 6.00 Build 0)  -->
<svg version="1.1" id="Layer_1" xmlns="http://www.w3.org/2000/svg" xmlns:xlink="http://www.w3.org/1999/xlink" x="0px" y="0px"
	 viewBox="0 0 283.5 283.5" style="enable-background:new 0 0 283.5 283.5;" xml:space="preserve">
<style type="text/css">
	.st0{fill:#DCDBDB;stroke:#FFFFFF;stroke-width:4.154;stroke-miterlimit:10;}
	.st1{fill:#3E3E3E;}
	.st2{fill:#F599A4;}
	.st3{fill:#FBD405;}
	.st4{fill:#99D8E2;}
	.st5{fill:#FFFFFF;}
	.st6{fill:#F3705B;}
	.st7{fill:#F8DF55;}
	.st8{fill:#2CB77F;}
	.st9{font-family:'CourierNewPSMT';}
	.st10{font-size:17.3493px;}
</style>
<path class="st0" d="M25,84.6l199.4-12.5c0,0,31.2-10.4,35.3,35.3c4.2,45.7,8.3,120.5,8.3,120.5s8.3,20.8-29.1,20.8
	s-199.4,8.3-199.4,8.3s-16.6,4.2-20.8-24.9S10.4,99.1,10.4,99.1S10.4,86.6,25,84.6z"/>
<polygon class="st1" points="207.7,174.7 211.6,201.4 218.6,197.7 224.9,207.1 230.6,203.3 224.5,193.8 230.6,188.8 "/>
<g>
	<g>
		<g>
			<path class="st2" d="M269,71.1c0,3.9,0,7.9,0,11.8c0,1.5,1.3,2.8,2.8,2.8c1.5-0.1,2.8-1.2,2.8-2.8c0-3.9,0-7.9,0-11.8
				c0-1.5-1.3-2.8-2.8-2.8C270.2,68.4,269,69.5,269,71.1L269,71.1z"/>
		</g>
	</g>
	<g>
		<g>
			<path class="st2" d="M265.9,79.8c3.7,0,7.3,0,11,0c1.4,0,2.8-1.3,2.8-2.8c-0.1-1.5-1.2-2.8-2.8-2.8c-3.7,0.1-7.3,0.1-11,0
				c-1.5,0-2.8,1.3-2.8,2.8C263.2,78.5,264.4,79.7,265.9,79.8L265.9,79.8z"/>
		</g>
	</g>
</g>
<g>
	<g>
		<g>
			<path class="st3" d="M177.8,26.3c-0.1,4-0.2,8-0.1,12c0,1.7,1.5,3.4,3.3,3.3c1.7-0.1,3.3-1.4,3.3-3.3c-0.1-4-0.1-8,0.1-12
				c0.1-1.7-1.6-3.4-3.3-3.3C179.3,23.1,177.9,24.5,177.8,26.3L177.8,26.3z"/>
		</g>
	</g>
	<g>
		<g>
			<path class="st3" d="M174.6,35.5c3.9-0.1,7.8-0.3,11.7-0.8c0.9-0.1,1.7-0.3,2.3-1c0.6-0.6,1-1.5,1-2.3c0-0.9-0.3-1.7-1-2.3
				c-0.6-0.6-1.5-1.1-2.3-1c-3.9,0.5-7.8,0.7-11.7,0.8c-1.7,0-3.4,1.5-3.3,3.3C171.4,33.9,172.8,35.5,174.6,35.5L174.6,35.5z"/>
		</g>
	</g>
</g>
<g>
	<g>
		<path class="st4" d="M43.1,45.2c0,0.1,0.1,0.1,0.1,0.2c-0.1-0.3-0.2-0.5-0.3-0.8c0.2,0.4,0.3,0.8,0.3,1.2c0-0.3-0.1-0.6-0.1-0.8
			c0.1,0.4,0.1,0.8,0,1.2c0-0.3,0.1-0.6,0.1-0.8c0,0.1,0,0.2-0.1,0.3c-0.1,0.4-0.2,0.8-0.1,1.3c0,0.4,0.1,0.8,0.4,1.2
			c0.2,0.4,0.5,0.7,0.8,0.9c0.3,0.3,0.7,0.5,1.1,0.6c0.3,0,0.6,0.1,0.8,0.1c0.6,0,1.1-0.1,1.6-0.4c0.2-0.2,0.4-0.3,0.6-0.5
			c0.4-0.4,0.7-0.9,0.8-1.4c0.2-0.8,0.3-1.6,0.2-2.4c-0.1-0.5-0.1-1-0.3-1.6c-0.1-0.5-0.4-1-0.6-1.5c-0.2-0.4-0.5-0.7-0.8-0.9
			c-0.3-0.3-0.7-0.5-1.1-0.6c-0.4-0.1-0.8-0.2-1.3-0.1c-0.4,0-0.8,0.1-1.2,0.4c-0.2,0.2-0.4,0.3-0.6,0.5c-0.4,0.4-0.7,0.9-0.8,1.4
			c0,0.3-0.1,0.6-0.1,0.8C42.7,44.2,42.8,44.7,43.1,45.2L43.1,45.2z"/>
	</g>
</g>
<g>
	<g>
		<path class="st4" d="M37.1,56.8c0.7,0,1.4,0,2.1,0c0.4,0,0.8-0.1,1.2-0.3c0.4-0.1,0.7-0.3,1-0.7c0.3-0.3,0.5-0.6,0.7-1
			c0.2-0.4,0.3-0.8,0.3-1.2c0-0.3-0.1-0.6-0.1-0.8c-0.2-0.5-0.4-1-0.8-1.4c-0.2-0.2-0.4-0.3-0.6-0.5c-0.5-0.3-1-0.4-1.6-0.4
			c-0.7,0-1.4,0-2.1,0c-0.4,0-0.8,0.1-1.2,0.3c-0.4,0.1-0.7,0.3-1,0.7c-0.3,0.3-0.5,0.6-0.7,1c-0.2,0.4-0.3,0.8-0.3,1.2
			c0,0.3,0.1,0.6,0.1,0.8c0.2,0.5,0.4,1,0.8,1.4c0.2,0.2,0.4,0.3,0.6,0.5C36,56.6,36.5,56.8,37.1,56.8L37.1,56.8z"/>
	</g>
</g>
<g>
	<g>
		<path class="st4" d="M45.6,61.2c0.1,0.1,0.2,0.2,0.3,0.3c-0.2-0.2-0.3-0.4-0.5-0.6c0.1,0.2,0.3,0.4,0.4,0.6
			c-0.1-0.3-0.2-0.5-0.3-0.8c0.1,0.2,0.2,0.5,0.2,0.7c0-0.3-0.1-0.6-0.1-0.8c0,0.2,0,0.5,0,0.7c0-0.3,0.1-0.6,0.1-0.8
			c0,0,0,0.1,0,0.1c-0.1,0.4-0.2,0.8-0.1,1.3c0,0.4,0.1,0.8,0.4,1.2c0.2,0.4,0.5,0.7,0.8,0.9c0.3,0.3,0.7,0.5,1.1,0.6
			c0.3,0,0.6,0.1,0.8,0.1c0.6,0,1.1-0.1,1.6-0.4c0.2-0.2,0.4-0.3,0.6-0.5c0.4-0.4,0.7-0.9,0.8-1.4c0.1-0.5,0.2-1,0.1-1.5
			c0-0.4-0.1-0.8-0.2-1.2c0-0.1-0.1-0.2-0.1-0.4c-0.1-0.4-0.3-0.7-0.4-1.1c0-0.1-0.1-0.2-0.2-0.3c-0.3-0.4-0.6-0.8-0.9-1.2
			c-0.3-0.3-0.6-0.5-1-0.7c-0.4-0.2-0.8-0.3-1.2-0.3c-0.4,0-0.8,0.1-1.2,0.3c-0.4,0.1-0.7,0.3-1,0.7c-0.2,0.2-0.3,0.4-0.5,0.6
			c-0.3,0.5-0.4,1-0.4,1.6c0,0.3,0.1,0.6,0.1,0.8C45,60.3,45.2,60.8,45.6,61.2L45.6,61.2z"/>
	</g>
</g>
<g>
	<g>
		<path class="st4" d="M55.7,54.6c0.3-0.2,0.5-0.4,0.8-0.5c-0.3,0.1-0.5,0.2-0.8,0.3c0.3-0.1,0.7-0.2,1-0.3c-0.3,0-0.6,0.1-0.8,0.1
			c0.2,0,0.4,0,0.6,0c0.4,0,0.8-0.1,1.2-0.3c0.4-0.1,0.7-0.3,1-0.7c0.3-0.3,0.5-0.6,0.7-1c0.2-0.4,0.3-0.8,0.3-1.2
			c0-0.3-0.1-0.6-0.1-0.8c-0.2-0.5-0.4-1-0.8-1.4c-0.2-0.2-0.4-0.3-0.6-0.5c-0.5-0.3-1-0.4-1.6-0.4c-0.5,0-1,0.1-1.5,0.2
			c-0.2,0-0.5,0.1-0.7,0.2c-0.1,0-0.2,0.1-0.3,0.1c-0.3,0.1-0.7,0.3-1,0.4c-0.2,0.1-0.4,0.2-0.6,0.4c-0.4,0.2-0.7,0.5-0.9,0.8
			c-0.3,0.3-0.5,0.7-0.6,1.1c-0.1,0.4-0.2,0.8-0.1,1.3c0,0.4,0.1,0.8,0.4,1.2c0.2,0.2,0.3,0.4,0.5,0.6c0.4,0.4,0.9,0.7,1.4,0.8
			c0.3,0,0.6,0.1,0.8,0.1C54.7,55.1,55.2,54.9,55.7,54.6L55.7,54.6z"/>
	</g>
</g>
<g>
	<g>
		<path class="st5" d="M29.7,109.6c27-1.5,54-3.1,81.1-4.7c26.9-1.6,53.7-3.2,80.5-4.9c14.8-0.9,29.7-2,44.2-4.9
			c1.1-0.2,1.7-1.5,1.5-2.6c-0.3-1.1-1.5-1.7-2.6-1.5c-12.9,2.6-26,3.7-39.1,4.5c-13.3,0.9-26.6,1.6-39.9,2.5
			c-26.7,1.6-53.5,3.2-80.2,4.7c-15.1,0.9-30.3,1.7-45.4,2.6C27.1,105.6,27,109.7,29.7,109.6L29.7,109.6z"/>
	</g>
</g>
<g>
	<g>
		<path class="st6" d="M32,99c1.1,0,2.1-1,2.1-2.1c-0.1-1.1-0.9-2.1-2.1-2.1c-1.1,0-2.1,1-2.1,2.1C29.9,98,30.8,99,32,99L32,99z"/>
	</g>
</g>
<g>
	<g>
		<path class="st7" d="M40.9,98.1c1.1,0,2.1-1,2.1-2.1c-0.1-1.1-0.9-2.1-2.1-2.1c-1.1,0-2.1,1-2.1,2.1
			C38.9,97.2,39.7,98.1,40.9,98.1L40.9,98.1z"/>
	</g>
</g>
<g>
	<g>
		<path class="st8" d="M50.3,97.7c1.1,0,2.1-1,2.1-2.1c-0.1-1.1-0.9-2.1-2.1-2.1c-1.1,0-2.1,1-2.1,2.1
			C48.2,96.8,49.1,97.7,50.3,97.7L50.3,97.7z"/>
	</g>
</g>
<text transform="matrix(0.9889 -0.1485 0.1485 0.9889 141.7324 175.1856)" class="st9 st10">Click Me !</text>
</svg>
