<?xml version="1.0" encoding="utf-8"?>
<!-- Generator: Adobe Illustrator 24.3.0, SVG Export Plug-In . SVG Version: 6.00 Build 0)  -->
<svg version="1.1" id="Layer_1" xmlns="http://www.w3.org/2000/svg" xmlns:xlink="http://www.w3.org/1999/xlink" x="0px" y="0px"
	 viewBox="0 0 1920 1080" style="enable-background:new 0 0 1920 1080;" xml:space="preserve">
<style type="text/css">
	.st0{fill-rule:evenodd;clip-rule:evenodd;fill:#DBEFF9;}
	.st1{fill-rule:evenodd;clip-rule:evenodd;fill:#FFFFFF;}
	.st2{fill-rule:evenodd;clip-rule:evenodd;fill:#C0DEED;}
	.st3{fill-rule:evenodd;clip-rule:evenodd;fill:#8FBBCE;}
	.st4{fill-rule:evenodd;clip-rule:evenodd;fill:url(#SVGID_1_);}
	.st5{fill-rule:evenodd;clip-rule:evenodd;fill:url(#SVGID_2_);}
	.st6{fill-rule:evenodd;clip-rule:evenodd;fill:url(#SVGID_3_);}
	.st7{fill-rule:evenodd;clip-rule:evenodd;fill:url(#SVGID_4_);}
	.st8{fill-rule:evenodd;clip-rule:evenodd;fill:url(#SVGID_5_);}
	.st9{fill-rule:evenodd;clip-rule:evenodd;fill:#82ADC1;}
	.st10{fill:url(#SVGID_6_);}
	.st11{fill:url(#SVGID_7_);}
	.st12{fill:url(#SVGID_8_);}
	.st13{fill:url(#SVGID_9_);}
	.st14{fill:url(#SVGID_10_);}
	.st15{fill:url(#SVGID_11_);}
	.st16{fill:url(#SVGID_12_);}
	.st17{fill:url(#SVGID_13_);}
	.st18{fill:url(#SVGID_14_);}
	.st19{fill:url(#SVGID_15_);}
	.st20{fill:url(#SVGID_16_);}
	.st21{fill:url(#SVGID_17_);}
	.st22{fill:url(#SVGID_18_);}
	.st23{fill:url(#SVGID_19_);}
	.st24{fill:url(#SVGID_20_);}
	.st25{fill:url(#SVGID_21_);}
	.st26{fill:url(#SVGID_22_);}
	.st27{fill:url(#SVGID_23_);}
	.st28{fill:url(#SVGID_24_);}
	.st29{fill:url(#SVGID_25_);}
	.st30{fill:url(#SVGID_26_);}
	.st31{fill:url(#SVGID_27_);}
	.st32{fill:url(#SVGID_28_);}
	.st33{fill:url(#SVGID_29_);}
	.st34{fill:url(#SVGID_30_);}
	.st35{fill:url(#SVGID_31_);}
	.st36{fill:url(#SVGID_32_);}
	.st37{fill:url(#SVGID_33_);}
	.st38{fill:url(#SVGID_34_);}
	.st39{fill:url(#SVGID_35_);}
	.st40{fill:url(#SVGID_36_);}
	.st41{fill:url(#SVGID_37_);}
	.st42{fill:url(#SVGID_38_);}
	.st43{fill-rule:evenodd;clip-rule:evenodd;fill:url(#SVGID_39_);}
</style>
<g>
	<g>
		<g>
			<polygon class="st0" points="737.84,1028.72 571.51,1124.45 256.53,1094.02 132.71,1109.32 -2.33,1112.6 -110.49,1065.73 
				-22.74,984.16 65.02,961.3 168.76,831.86 339.53,803.58 513,830.88 665.72,984.16 697.36,994.03 			"/>
			<polygon class="st1" points="513,830.88 420.48,868.87 256.53,884.16 200.06,864.59 211.29,846.01 168.76,831.86 339.53,803.58 
							"/>
			<polygon class="st2" points="572.83,1124.45 422.46,868.87 259.16,884.16 259.16,1094.02 			"/>
			<polygon class="st3" points="200.06,864.59 132.71,1109.32 105.5,995.01 65.02,961.3 168.76,831.86 211.29,846.01 			"/>
			<polygon class="st3" points="-22.74,984.16 29.3,1025.59 -2.33,1112.6 -110.49,1065.73 			"/>
			<polygon class="st2" points="105.5,995.01 29.3,1025.59 -2.33,1112.6 132.71,1109.32 			"/>
			<polygon class="st1" points="65.02,961.3 -22.74,984.16 29.3,1025.59 105.5,995.01 			"/>
		</g>
		<g>
			
				<linearGradient id="SVGID_1_" gradientUnits="userSpaceOnUse" x1="1278.8573" y1="1457.6888" x2="1278.8573" y2="1027.1947" gradientTransform="matrix(-0.998 -0.0633 -0.0633 0.998 1661.1936 57.8583)">
				<stop  offset="0" style="stop-color:#CEE5F4;stop-opacity:0"/>
				<stop  offset="0.3286" style="stop-color:#CCE3F3;stop-opacity:0.1213"/>
				<stop  offset="0.5017" style="stop-color:#C4DEEE;stop-opacity:0.1852"/>
				<stop  offset="0.6386" style="stop-color:#B6D5E6;stop-opacity:0.2357"/>
				<stop  offset="0.7558" style="stop-color:#A3C8DA;stop-opacity:0.2789"/>
				<stop  offset="0.8128" style="stop-color:#97BFD3;stop-opacity:0.3"/>
				<stop  offset="1" style="stop-color:#8FBBCE;stop-opacity:0.8"/>
			</linearGradient>
			<polygon class="st4" points="740,1028.66 576.5,1119.16 259.16,1092.38 135.08,1107.38 2.27,1113.41 -111.82,1156.89 
				-34.93,1240.98 49.65,1266.48 136.23,1398.83 302.94,1432.29 479.64,1410.35 652.15,1262.05 685.01,1253.17 			"/>
			
				<linearGradient id="SVGID_2_" gradientUnits="userSpaceOnUse" x1="1178.6074" y1="1389.4087" x2="1178.6074" y2="1121.2413" gradientTransform="matrix(-0.998 -0.0633 -0.0633 0.998 1661.1936 57.8583)">
				<stop  offset="0" style="stop-color:#CEE5F4;stop-opacity:0"/>
				<stop  offset="0.3286" style="stop-color:#CCE3F3;stop-opacity:0.1213"/>
				<stop  offset="0.5017" style="stop-color:#C4DEEE;stop-opacity:0.1852"/>
				<stop  offset="0.6386" style="stop-color:#B6D5E6;stop-opacity:0.2357"/>
				<stop  offset="0.7558" style="stop-color:#A3C8DA;stop-opacity:0.2789"/>
				<stop  offset="0.8128" style="stop-color:#97BFD3;stop-opacity:0.3"/>
				<stop  offset="1" style="stop-color:#8FBBCE;stop-opacity:0.8"/>
			</linearGradient>
			<polygon class="st5" points="577.82,1119.2 394.26,1369.66 233.3,1349.4 259.16,1092.38 			"/>
			
				<linearGradient id="SVGID_3_" gradientUnits="userSpaceOnUse" x1="1462.6741" y1="1434.859" x2="1462.6741" y2="1144.0634" gradientTransform="matrix(-0.998 -0.0633 -0.0633 0.998 1661.1936 57.8583)">
				<stop  offset="0" style="stop-color:#CEE5F4;stop-opacity:0"/>
				<stop  offset="0.3286" style="stop-color:#CCE3F3;stop-opacity:0.1213"/>
				<stop  offset="0.5017" style="stop-color:#C4DEEE;stop-opacity:0.1852"/>
				<stop  offset="0.6386" style="stop-color:#B6D5E6;stop-opacity:0.2357"/>
				<stop  offset="0.7558" style="stop-color:#A3C8DA;stop-opacity:0.2789"/>
				<stop  offset="0.8128" style="stop-color:#97BFD3;stop-opacity:0.3"/>
				<stop  offset="1" style="stop-color:#8FBBCE;stop-opacity:0.8"/>
			</linearGradient>
			<polygon class="st6" points="171.75,1367.12 135.08,1107.38 94.47,1234.08 49.65,1266.48 136.23,1398.83 180.52,1386.01 			"/>
			
				<linearGradient id="SVGID_4_" gradientUnits="userSpaceOnUse" x1="1634.0327" y1="1288.1635" x2="1634.0327" y2="1117.2094" gradientTransform="matrix(-0.998 -0.0633 -0.0633 0.998 1661.1936 57.8583)">
				<stop  offset="0" style="stop-color:#CEE5F4;stop-opacity:0"/>
				<stop  offset="0.3286" style="stop-color:#CCE3F3;stop-opacity:0.1213"/>
				<stop  offset="0.5017" style="stop-color:#C4DEEE;stop-opacity:0.1852"/>
				<stop  offset="0.6386" style="stop-color:#B6D5E6;stop-opacity:0.2357"/>
				<stop  offset="0.7558" style="stop-color:#A3C8DA;stop-opacity:0.2789"/>
				<stop  offset="0.8128" style="stop-color:#97BFD3;stop-opacity:0.3"/>
				<stop  offset="1" style="stop-color:#8FBBCE;stop-opacity:0.8"/>
			</linearGradient>
			<path class="st7" d="M-34.93,1240.98l57.36-39.76l-20.17-87.8l-108.52-47.99c-2.14-0.94-5.52-0.01-4.92,1.36L-34.93,1240.98z"/>
			
				<linearGradient id="SVGID_5_" gradientUnits="userSpaceOnUse" x1="1522.6653" y1="1273.0803" x2="1522.6653" y2="1144.0634" gradientTransform="matrix(-0.998 -0.0633 -0.0633 0.998 1661.1936 57.8583)">
				<stop  offset="0" style="stop-color:#CEE5F4;stop-opacity:0"/>
				<stop  offset="0.3286" style="stop-color:#CCE3F3;stop-opacity:0.1213"/>
				<stop  offset="0.5017" style="stop-color:#C4DEEE;stop-opacity:0.1852"/>
				<stop  offset="0.6386" style="stop-color:#B6D5E6;stop-opacity:0.2357"/>
				<stop  offset="0.7558" style="stop-color:#A3C8DA;stop-opacity:0.2789"/>
				<stop  offset="0.8128" style="stop-color:#97BFD3;stop-opacity:0.3"/>
				<stop  offset="1" style="stop-color:#8FBBCE;stop-opacity:0.8"/>
			</linearGradient>
			<polygon class="st8" points="94.47,1234.08 22.43,1201.22 2.27,1113.41 135.08,1107.38 			"/>
		</g>
	</g>
	<g>
		<polygon class="st0" points="226.12,832.69 265.41,843.8 386.26,842.25 448.54,820.86 404.3,781.31 360.31,769.48 340.54,750.48 
			291.6,759.2 		"/>
		<polygon class="st1" points="291.6,759.2 332.38,763.98 340.54,750.48 		"/>
		<polygon class="st2" points="265.41,843.8 332.38,763.98 386.26,842.25 		"/>
		<polygon class="st9" points="332.38,763.98 386.26,842.25 390.46,794.81 360.31,769.48 340.54,750.48 		"/>
		<polygon class="st3" points="404.3,781.31 390.46,794.81 386.26,842.25 448.54,820.86 		"/>
		<polygon class="st1" points="360.31,769.48 404.3,781.31 390.46,794.81 		"/>
	</g>
</g>
<g>
	<g>
		<linearGradient id="SVGID_6_" gradientUnits="userSpaceOnUse" x1="1554.2782" y1="1276.9493" x2="1554.2782" y2="1171.7205">
			<stop  offset="5.586592e-03" style="stop-color:#C0DEED;stop-opacity:0"/>
			<stop  offset="0.303" style="stop-color:#BCDBEB;stop-opacity:0.2094"/>
			<stop  offset="0.5798" style="stop-color:#B1D3E4;stop-opacity:0.4042"/>
			<stop  offset="0.8476" style="stop-color:#9EC5D8;stop-opacity:0.5927"/>
			<stop  offset="1" style="stop-color:#90BBCF;stop-opacity:0.7"/>
		</linearGradient>
		<polygon class="st10" points="1475.74,1171.72 1484.69,1195.07 1626.17,1276.95 1632.81,1171.72 		"/>
		<linearGradient id="SVGID_7_" gradientUnits="userSpaceOnUse" x1="1743.1499" y1="1377.9915" x2="1743.1499" y2="1171.7205">
			<stop  offset="5.586592e-03" style="stop-color:#C0DEED;stop-opacity:0"/>
			<stop  offset="0.303" style="stop-color:#BCDBEB;stop-opacity:0.2094"/>
			<stop  offset="0.5798" style="stop-color:#B1D3E4;stop-opacity:0.4042"/>
			<stop  offset="0.8476" style="stop-color:#9EC5D8;stop-opacity:0.5927"/>
			<stop  offset="1" style="stop-color:#90BBCF;stop-opacity:0.7"/>
		</linearGradient>
		<polygon class="st11" points="1641.26,1171.72 1692.91,1273.37 1672.07,1340.4 1736.28,1377.99 1845.04,1171.72 		"/>
		<linearGradient id="SVGID_8_" gradientUnits="userSpaceOnUse" x1="593.4747" y1="1412.191" x2="593.4747" y2="1238.8085">
			<stop  offset="5.586592e-03" style="stop-color:#C0DEED;stop-opacity:0"/>
			<stop  offset="0.303" style="stop-color:#BCDBEB;stop-opacity:0.2094"/>
			<stop  offset="0.5798" style="stop-color:#B1D3E4;stop-opacity:0.4042"/>
			<stop  offset="0.8476" style="stop-color:#9EC5D8;stop-opacity:0.5927"/>
			<stop  offset="1" style="stop-color:#90BBCF;stop-opacity:0.7"/>
		</linearGradient>
		<polygon class="st12" points="679.79,1317.56 699.37,1238.81 487.58,1255.77 626.95,1412.19 		"/>
		<linearGradient id="SVGID_9_" gradientUnits="userSpaceOnUse" x1="975.074" y1="1346.7241" x2="975.074" y2="1196.3531">
			<stop  offset="5.586592e-03" style="stop-color:#C0DEED;stop-opacity:0"/>
			<stop  offset="0.303" style="stop-color:#BCDBEB;stop-opacity:0.2094"/>
			<stop  offset="0.5798" style="stop-color:#B1D3E4;stop-opacity:0.4042"/>
			<stop  offset="0.8476" style="stop-color:#9EC5D8;stop-opacity:0.5927"/>
			<stop  offset="1" style="stop-color:#90BBCF;stop-opacity:0.7"/>
		</linearGradient>
		<polygon class="st13" points="1119.82,1346.72 1125.5,1261.82 1016.87,1214.51 824.64,1196.35 947.18,1334.62 		"/>
		<linearGradient id="SVGID_10_" gradientUnits="userSpaceOnUse" x1="1736.2834" y1="1377.9915" x2="1736.2834" y2="1377.9915">
			<stop  offset="5.586592e-03" style="stop-color:#C0DEED;stop-opacity:0"/>
			<stop  offset="0.303" style="stop-color:#BCDBEB;stop-opacity:0.2094"/>
			<stop  offset="0.5798" style="stop-color:#B1D3E4;stop-opacity:0.4042"/>
			<stop  offset="0.8476" style="stop-color:#9EC5D8;stop-opacity:0.5927"/>
			<stop  offset="1" style="stop-color:#90BBCF;stop-opacity:0.7"/>
		</linearGradient>
		<path class="st14" d="M1736.28,1377.99"/>
		<linearGradient id="SVGID_11_" gradientUnits="userSpaceOnUse" x1="703.4025" y1="1185.4399" x2="703.4025" y2="1171.7205">
			<stop  offset="5.586592e-03" style="stop-color:#C0DEED;stop-opacity:0"/>
			<stop  offset="0.303" style="stop-color:#BCDBEB;stop-opacity:0.2094"/>
			<stop  offset="0.5798" style="stop-color:#B1D3E4;stop-opacity:0.4042"/>
			<stop  offset="0.8476" style="stop-color:#9EC5D8;stop-opacity:0.5927"/>
			<stop  offset="1" style="stop-color:#90BBCF;stop-opacity:0.7"/>
		</linearGradient>
		<polygon class="st15" points="604.47,1171.72 802.33,1185.44 798,1171.72 		"/>
		<linearGradient id="SVGID_12_" gradientUnits="userSpaceOnUse" x1="1211.3907" y1="1218.726" x2="1211.3907" y2="1171.7205">
			<stop  offset="5.586592e-03" style="stop-color:#C0DEED;stop-opacity:0"/>
			<stop  offset="0.303" style="stop-color:#BCDBEB;stop-opacity:0.2094"/>
			<stop  offset="0.5798" style="stop-color:#B1D3E4;stop-opacity:0.4042"/>
			<stop  offset="0.8476" style="stop-color:#9EC5D8;stop-opacity:0.5927"/>
			<stop  offset="1" style="stop-color:#90BBCF;stop-opacity:0.7"/>
		</linearGradient>
		<polygon class="st16" points="1131.01,1171.72 1270.37,1218.73 1291.77,1171.72 		"/>
		<linearGradient id="SVGID_13_" gradientUnits="userSpaceOnUse" x1="395.776" y1="1314.5399" x2="395.776" y2="1171.7205">
			<stop  offset="5.586592e-03" style="stop-color:#C0DEED;stop-opacity:0"/>
			<stop  offset="0.303" style="stop-color:#BCDBEB;stop-opacity:0.2094"/>
			<stop  offset="0.5798" style="stop-color:#B1D3E4;stop-opacity:0.4042"/>
			<stop  offset="0.8476" style="stop-color:#9EC5D8;stop-opacity:0.5927"/>
			<stop  offset="1" style="stop-color:#90BBCF;stop-opacity:0.7"/>
		</linearGradient>
		<polygon class="st17" points="482.1,1171.72 455.68,1171.72 309.45,1210.84 341.45,1314.54 349.73,1207.13 		"/>
		<linearGradient id="SVGID_14_" gradientUnits="userSpaceOnUse" x1="395.776" y1="1470.8479" x2="395.776" y2="-89.9015">
			<stop  offset="5.586592e-03" style="stop-color:#C0DEED;stop-opacity:0"/>
			<stop  offset="0.303" style="stop-color:#BCDBEB;stop-opacity:0.2094"/>
			<stop  offset="0.5798" style="stop-color:#B1D3E4;stop-opacity:0.4042"/>
			<stop  offset="0.8476" style="stop-color:#9EC5D8;stop-opacity:0.5927"/>
			<stop  offset="1" style="stop-color:#90BBCF;stop-opacity:0.7"/>
		</linearGradient>
		<polygon class="st18" points="482.1,1171.72 455.68,1171.72 309.45,1210.84 341.45,1314.54 349.73,1207.13 		"/>
		<linearGradient id="SVGID_15_" gradientUnits="userSpaceOnUse" x1="1659.5404" y1="1276.9493" x2="1659.5404" y2="1171.7205">
			<stop  offset="5.586592e-03" style="stop-color:#C0DEED;stop-opacity:0"/>
			<stop  offset="0.303" style="stop-color:#BCDBEB;stop-opacity:0.2094"/>
			<stop  offset="0.5798" style="stop-color:#B1D3E4;stop-opacity:0.4042"/>
			<stop  offset="0.8476" style="stop-color:#9EC5D8;stop-opacity:0.5927"/>
			<stop  offset="1" style="stop-color:#90BBCF;stop-opacity:0.7"/>
		</linearGradient>
		<polygon class="st19" points="1632.81,1171.72 1626.17,1276.95 1692.91,1273.37 1641.26,1171.72 		"/>
		<linearGradient id="SVGID_16_" gradientUnits="userSpaceOnUse" x1="1659.5404" y1="3650.6775" x2="1659.5404" y2="676.1674">
			<stop  offset="5.586592e-03" style="stop-color:#C0DEED;stop-opacity:0"/>
			<stop  offset="0.303" style="stop-color:#BCDBEB;stop-opacity:0.2094"/>
			<stop  offset="0.5798" style="stop-color:#B1D3E4;stop-opacity:0.4042"/>
			<stop  offset="0.8476" style="stop-color:#9EC5D8;stop-opacity:0.5927"/>
			<stop  offset="1" style="stop-color:#90BBCF;stop-opacity:0.7"/>
		</linearGradient>
		<polygon class="st20" points="1632.81,1171.72 1626.17,1276.95 1692.91,1273.37 1641.26,1171.72 		"/>
		<linearGradient id="SVGID_17_" gradientUnits="userSpaceOnUse" x1="834.2244" y1="1185.4399" x2="834.2244" y2="1171.7205">
			<stop  offset="5.586592e-03" style="stop-color:#C0DEED;stop-opacity:0"/>
			<stop  offset="0.303" style="stop-color:#BCDBEB;stop-opacity:0.2094"/>
			<stop  offset="0.5798" style="stop-color:#B1D3E4;stop-opacity:0.4042"/>
			<stop  offset="0.8476" style="stop-color:#9EC5D8;stop-opacity:0.5927"/>
			<stop  offset="1" style="stop-color:#90BBCF;stop-opacity:0.7"/>
		</linearGradient>
		<polygon class="st21" points="802.33,1185.44 870.45,1171.72 798,1171.72 		"/>
		<linearGradient id="SVGID_18_" gradientUnits="userSpaceOnUse" x1="834.2244" y1="1313.7262" x2="834.2244" y2="956.4666">
			<stop  offset="5.586592e-03" style="stop-color:#C0DEED;stop-opacity:0"/>
			<stop  offset="0.303" style="stop-color:#BCDBEB;stop-opacity:0.2094"/>
			<stop  offset="0.5798" style="stop-color:#B1D3E4;stop-opacity:0.4042"/>
			<stop  offset="0.8476" style="stop-color:#9EC5D8;stop-opacity:0.5927"/>
			<stop  offset="1" style="stop-color:#90BBCF;stop-opacity:0.7"/>
		</linearGradient>
		<polygon class="st22" points="802.33,1185.44 870.45,1171.72 798,1171.72 		"/>
		<linearGradient id="SVGID_19_" gradientUnits="userSpaceOnUse" x1="1377.5297" y1="1218.726" x2="1377.5297" y2="1171.7205">
			<stop  offset="5.586592e-03" style="stop-color:#C0DEED;stop-opacity:0"/>
			<stop  offset="0.303" style="stop-color:#BCDBEB;stop-opacity:0.2094"/>
			<stop  offset="0.5798" style="stop-color:#B1D3E4;stop-opacity:0.4042"/>
			<stop  offset="0.8476" style="stop-color:#9EC5D8;stop-opacity:0.5927"/>
			<stop  offset="1" style="stop-color:#90BBCF;stop-opacity:0.7"/>
		</linearGradient>
		<polygon class="st23" points="1291.77,1171.72 1270.37,1218.73 1484.69,1195.07 1475.74,1171.72 		"/>
		<linearGradient id="SVGID_20_" gradientUnits="userSpaceOnUse" x1="1377.5297" y1="1470.9097" x2="1377.5297" y2="1057.1169">
			<stop  offset="5.586592e-03" style="stop-color:#C0DEED;stop-opacity:0"/>
			<stop  offset="0.303" style="stop-color:#BCDBEB;stop-opacity:0.2094"/>
			<stop  offset="0.5798" style="stop-color:#B1D3E4;stop-opacity:0.4042"/>
			<stop  offset="0.8476" style="stop-color:#9EC5D8;stop-opacity:0.5927"/>
			<stop  offset="1" style="stop-color:#90BBCF;stop-opacity:0.7"/>
		</linearGradient>
		<polygon class="st24" points="1291.77,1171.72 1270.37,1218.73 1484.69,1195.07 1475.74,1171.72 		"/>
		<linearGradient id="SVGID_21_" gradientUnits="userSpaceOnUse" x1="297.2367" y1="1314.5399" x2="297.2367" y2="1148.369">
			<stop  offset="5.586592e-03" style="stop-color:#C0DEED;stop-opacity:0"/>
			<stop  offset="0.303" style="stop-color:#BCDBEB;stop-opacity:0.2094"/>
			<stop  offset="0.5798" style="stop-color:#B1D3E4;stop-opacity:0.4042"/>
			<stop  offset="0.8476" style="stop-color:#9EC5D8;stop-opacity:0.5927"/>
			<stop  offset="1" style="stop-color:#90BBCF;stop-opacity:0.7"/>
		</linearGradient>
		<polygon class="st25" points="415.89,1269.02 244.37,1148.37 241.24,1189.66 178.58,1209.27 341.45,1314.54 387.31,1292.37 		"/>
		<linearGradient id="SVGID_22_" gradientUnits="userSpaceOnUse" x1="687.4816" y1="1467.3914" x2="687.4816" y2="1196.3531">
			<stop  offset="5.586592e-03" style="stop-color:#C0DEED;stop-opacity:0"/>
			<stop  offset="0.303" style="stop-color:#BCDBEB;stop-opacity:0.2094"/>
			<stop  offset="0.5798" style="stop-color:#B1D3E4;stop-opacity:0.4042"/>
			<stop  offset="0.8476" style="stop-color:#9EC5D8;stop-opacity:0.5927"/>
			<stop  offset="1" style="stop-color:#90BBCF;stop-opacity:0.7"/>
		</linearGradient>
		<polygon class="st26" points="813.49,1350.39 947.18,1334.62 824.64,1196.35 699.37,1238.81 679.79,1317.56 626.95,1412.19 
			487.58,1255.77 427.78,1340.03 628.21,1467.39 791.16,1403.75 		"/>
		<linearGradient id="SVGID_23_" gradientUnits="userSpaceOnUse" x1="687.4816" y1="1627.741" x2="687.4816" y2="643.1852">
			<stop  offset="5.586592e-03" style="stop-color:#C0DEED;stop-opacity:0"/>
			<stop  offset="0.303" style="stop-color:#BCDBEB;stop-opacity:0.2094"/>
			<stop  offset="0.5798" style="stop-color:#B1D3E4;stop-opacity:0.4042"/>
			<stop  offset="0.8476" style="stop-color:#9EC5D8;stop-opacity:0.5927"/>
			<stop  offset="1" style="stop-color:#90BBCF;stop-opacity:0.7"/>
		</linearGradient>
		<polygon class="st27" points="813.49,1350.39 947.18,1334.62 824.64,1196.35 699.37,1238.81 679.79,1317.56 626.95,1412.19 
			487.58,1255.77 427.78,1340.03 628.21,1467.39 791.16,1403.75 		"/>
		<linearGradient id="SVGID_24_" gradientUnits="userSpaceOnUse" x1="1178.3519" y1="1346.7241" x2="1178.3519" y2="1261.8165">
			<stop  offset="5.586592e-03" style="stop-color:#C0DEED;stop-opacity:0"/>
			<stop  offset="0.303" style="stop-color:#BCDBEB;stop-opacity:0.2094"/>
			<stop  offset="0.5798" style="stop-color:#B1D3E4;stop-opacity:0.4042"/>
			<stop  offset="0.8476" style="stop-color:#9EC5D8;stop-opacity:0.5927"/>
			<stop  offset="1" style="stop-color:#90BBCF;stop-opacity:0.7"/>
		</linearGradient>
		<polygon class="st28" points="1236.88,1322.43 1125.5,1261.82 1119.82,1346.72 		"/>
		<linearGradient id="SVGID_25_" gradientUnits="userSpaceOnUse" x1="1178.3519" y1="2071.5715" x2="1178.3519" y2="703.0442">
			<stop  offset="5.586592e-03" style="stop-color:#C0DEED;stop-opacity:0"/>
			<stop  offset="0.303" style="stop-color:#BCDBEB;stop-opacity:0.2094"/>
			<stop  offset="0.5798" style="stop-color:#B1D3E4;stop-opacity:0.4042"/>
			<stop  offset="0.8476" style="stop-color:#9EC5D8;stop-opacity:0.5927"/>
			<stop  offset="1" style="stop-color:#90BBCF;stop-opacity:0.7"/>
		</linearGradient>
		<polygon class="st29" points="1236.88,1322.43 1125.5,1261.82 1119.82,1346.72 		"/>
		<linearGradient id="SVGID_26_" gradientUnits="userSpaceOnUse" x1="1000.7298" y1="1171.7205" x2="1000.7298" y2="1171.7205">
			<stop  offset="5.586592e-03" style="stop-color:#C0DEED;stop-opacity:0"/>
			<stop  offset="0.303" style="stop-color:#BCDBEB;stop-opacity:0.2094"/>
			<stop  offset="0.5798" style="stop-color:#B1D3E4;stop-opacity:0.4042"/>
			<stop  offset="0.8476" style="stop-color:#9EC5D8;stop-opacity:0.5927"/>
			<stop  offset="1" style="stop-color:#90BBCF;stop-opacity:0.7"/>
		</linearGradient>
		<line class="st30" x1="870.45" y1="1171.72" x2="1131.01" y2="1171.72"/>
		<linearGradient id="SVGID_27_" gradientUnits="userSpaceOnUse" x1="543.2861" y1="1171.7205" x2="543.2861" y2="1171.7205">
			<stop  offset="5.586592e-03" style="stop-color:#C0DEED;stop-opacity:0"/>
			<stop  offset="0.303" style="stop-color:#BCDBEB;stop-opacity:0.2094"/>
			<stop  offset="0.5798" style="stop-color:#B1D3E4;stop-opacity:0.4042"/>
			<stop  offset="0.8476" style="stop-color:#9EC5D8;stop-opacity:0.5927"/>
			<stop  offset="1" style="stop-color:#90BBCF;stop-opacity:0.7"/>
		</linearGradient>
		<line class="st31" x1="482.1" y1="1171.72" x2="604.47" y2="1171.72"/>
		<linearGradient id="SVGID_28_" gradientUnits="userSpaceOnUse" x1="1554.2782" y1="1171.7205" x2="1554.2782" y2="1171.7205">
			<stop  offset="5.586592e-03" style="stop-color:#C0DEED;stop-opacity:0"/>
			<stop  offset="0.303" style="stop-color:#BCDBEB;stop-opacity:0.2094"/>
			<stop  offset="0.5798" style="stop-color:#B1D3E4;stop-opacity:0.4042"/>
			<stop  offset="0.8476" style="stop-color:#9EC5D8;stop-opacity:0.5927"/>
			<stop  offset="1" style="stop-color:#90BBCF;stop-opacity:0.7"/>
		</linearGradient>
		<line class="st32" x1="1475.74" y1="1171.72" x2="1632.81" y2="1171.72"/>
		<linearGradient id="SVGID_29_" gradientUnits="userSpaceOnUse" x1="1743.1499" y1="1171.7205" x2="1743.1499" y2="1171.7205">
			<stop  offset="5.586592e-03" style="stop-color:#C0DEED;stop-opacity:0"/>
			<stop  offset="0.303" style="stop-color:#BCDBEB;stop-opacity:0.2094"/>
			<stop  offset="0.5798" style="stop-color:#B1D3E4;stop-opacity:0.4042"/>
			<stop  offset="0.8476" style="stop-color:#9EC5D8;stop-opacity:0.5927"/>
			<stop  offset="1" style="stop-color:#90BBCF;stop-opacity:0.7"/>
		</linearGradient>
		<line class="st33" x1="1641.26" y1="1171.72" x2="1845.04" y2="1171.72"/>
		<linearGradient id="SVGID_30_" gradientUnits="userSpaceOnUse" x1="1211.3907" y1="1171.7205" x2="1211.3907" y2="1171.7205">
			<stop  offset="5.586592e-03" style="stop-color:#C0DEED;stop-opacity:0"/>
			<stop  offset="0.303" style="stop-color:#BCDBEB;stop-opacity:0.2094"/>
			<stop  offset="0.5798" style="stop-color:#B1D3E4;stop-opacity:0.4042"/>
			<stop  offset="0.8476" style="stop-color:#9EC5D8;stop-opacity:0.5927"/>
			<stop  offset="1" style="stop-color:#90BBCF;stop-opacity:0.7"/>
		</linearGradient>
		<line class="st34" x1="1131.01" y1="1171.72" x2="1291.77" y2="1171.72"/>
		<linearGradient id="SVGID_31_" gradientUnits="userSpaceOnUse" x1="701.2336" y1="1171.7205" x2="701.2336" y2="1171.7205">
			<stop  offset="5.586592e-03" style="stop-color:#C0DEED;stop-opacity:0"/>
			<stop  offset="0.303" style="stop-color:#BCDBEB;stop-opacity:0.2094"/>
			<stop  offset="0.5798" style="stop-color:#B1D3E4;stop-opacity:0.4042"/>
			<stop  offset="0.8476" style="stop-color:#9EC5D8;stop-opacity:0.5927"/>
			<stop  offset="1" style="stop-color:#90BBCF;stop-opacity:0.7"/>
		</linearGradient>
		<line class="st35" x1="604.47" y1="1171.72" x2="798" y2="1171.72"/>
		<linearGradient id="SVGID_32_" gradientUnits="userSpaceOnUse" x1="2118.0088" y1="1171.7205" x2="2118.0088" y2="1171.7205">
			<stop  offset="5.586592e-03" style="stop-color:#C0DEED;stop-opacity:0"/>
			<stop  offset="0.303" style="stop-color:#BCDBEB;stop-opacity:0.2094"/>
			<stop  offset="0.5798" style="stop-color:#B1D3E4;stop-opacity:0.4042"/>
			<stop  offset="0.8476" style="stop-color:#9EC5D8;stop-opacity:0.5927"/>
			<stop  offset="1" style="stop-color:#90BBCF;stop-opacity:0.7"/>
		</linearGradient>
		<line class="st36" x1="1995.14" y1="1171.72" x2="2240.88" y2="1171.72"/>
		<linearGradient id="SVGID_33_" gradientUnits="userSpaceOnUse" x1="468.891" y1="1171.7205" x2="468.891" y2="1171.7205">
			<stop  offset="5.586592e-03" style="stop-color:#C0DEED;stop-opacity:0"/>
			<stop  offset="0.303" style="stop-color:#BCDBEB;stop-opacity:0.2094"/>
			<stop  offset="0.5798" style="stop-color:#B1D3E4;stop-opacity:0.4042"/>
			<stop  offset="0.8476" style="stop-color:#9EC5D8;stop-opacity:0.5927"/>
			<stop  offset="1" style="stop-color:#90BBCF;stop-opacity:0.7"/>
		</linearGradient>
		<line class="st37" x1="455.68" y1="1171.72" x2="482.1" y2="1171.72"/>
		<linearGradient id="SVGID_34_" gradientUnits="userSpaceOnUse" x1="834.2244" y1="1171.7205" x2="834.2244" y2="1171.7205">
			<stop  offset="5.586592e-03" style="stop-color:#C0DEED;stop-opacity:0"/>
			<stop  offset="0.303" style="stop-color:#BCDBEB;stop-opacity:0.2094"/>
			<stop  offset="0.5798" style="stop-color:#B1D3E4;stop-opacity:0.4042"/>
			<stop  offset="0.8476" style="stop-color:#9EC5D8;stop-opacity:0.5927"/>
			<stop  offset="1" style="stop-color:#90BBCF;stop-opacity:0.7"/>
		</linearGradient>
		<line class="st38" x1="798" y1="1171.72" x2="870.45" y2="1171.72"/>
		<linearGradient id="SVGID_35_" gradientUnits="userSpaceOnUse" x1="359.0818" y1="1171.7205" x2="359.0818" y2="1171.7205">
			<stop  offset="5.586592e-03" style="stop-color:#C0DEED;stop-opacity:0"/>
			<stop  offset="0.303" style="stop-color:#BCDBEB;stop-opacity:0.2094"/>
			<stop  offset="0.5798" style="stop-color:#B1D3E4;stop-opacity:0.4042"/>
			<stop  offset="0.8476" style="stop-color:#9EC5D8;stop-opacity:0.5927"/>
			<stop  offset="1" style="stop-color:#90BBCF;stop-opacity:0.7"/>
		</linearGradient>
		<line class="st39" x1="262.48" y1="1171.72" x2="455.68" y2="1171.72"/>
		<linearGradient id="SVGID_36_" gradientUnits="userSpaceOnUse" x1="1920.0863" y1="1171.7205" x2="1920.0863" y2="1171.7205">
			<stop  offset="5.586592e-03" style="stop-color:#C0DEED;stop-opacity:0"/>
			<stop  offset="0.303" style="stop-color:#BCDBEB;stop-opacity:0.2094"/>
			<stop  offset="0.5798" style="stop-color:#B1D3E4;stop-opacity:0.4042"/>
			<stop  offset="0.8476" style="stop-color:#9EC5D8;stop-opacity:0.5927"/>
			<stop  offset="1" style="stop-color:#90BBCF;stop-opacity:0.7"/>
		</linearGradient>
		<line class="st40" x1="1845.04" y1="1171.72" x2="1995.14" y2="1171.72"/>
		<linearGradient id="SVGID_37_" gradientUnits="userSpaceOnUse" x1="1383.7593" y1="1171.7205" x2="1383.7593" y2="1171.7205">
			<stop  offset="5.586592e-03" style="stop-color:#C0DEED;stop-opacity:0"/>
			<stop  offset="0.303" style="stop-color:#BCDBEB;stop-opacity:0.2094"/>
			<stop  offset="0.5798" style="stop-color:#B1D3E4;stop-opacity:0.4042"/>
			<stop  offset="0.8476" style="stop-color:#9EC5D8;stop-opacity:0.5927"/>
			<stop  offset="1" style="stop-color:#90BBCF;stop-opacity:0.7"/>
		</linearGradient>
		<line class="st41" x1="1291.77" y1="1171.72" x2="1475.74" y2="1171.72"/>
		<linearGradient id="SVGID_38_" gradientUnits="userSpaceOnUse" x1="1637.0375" y1="1171.7205" x2="1637.0375" y2="1171.7205">
			<stop  offset="5.586592e-03" style="stop-color:#C0DEED;stop-opacity:0"/>
			<stop  offset="0.303" style="stop-color:#BCDBEB;stop-opacity:0.2094"/>
			<stop  offset="0.5798" style="stop-color:#B1D3E4;stop-opacity:0.4042"/>
			<stop  offset="0.8476" style="stop-color:#9EC5D8;stop-opacity:0.5927"/>
			<stop  offset="1" style="stop-color:#90BBCF;stop-opacity:0.7"/>
		</linearGradient>
		<line class="st42" x1="1632.81" y1="1171.72" x2="1641.26" y2="1171.72"/>
	</g>
	<g>
		<path class="st1" d="M2255,1106.07l-277.07-119.84l-82.36-30.03l-46.26-86.86l-75.15-30.35l-105.91-66.66l-133.68-42.45
			L1456.66,691l-247.41,2.93l-228.43,25.4l-128,77.66l-234.13,66.75L418.25,991.09l-86.33,25.49l-201.9,93.06l101.68,31.82
			l85.9,72.53l93.06,46.49l238.55,39.98l100.42-18.24l122.53,6.05l164.43,31.54c10.95,1.56,5.27,1.19,16.63,1.19l359.4-21.82
			l91.79-48.51l5.55-11.74l10.76-8.79l103.49-55.94l218.12-1.83l155.38,11.55l231.18-20.91l22.1-32.46L2255,1106.07z"/>
		<path class="st2" d="M2255,1106.07l-277.07-119.84l-42.31-12.75l-43.59-19.71l-165.27-0.64l-64.21,37.59l20.85,67.02l-66.75-3.58
			l-141.47,81.88l-214.33-23.66l-167.18,56.39l-135.16,10.27l-165.69-33.37l-316.03,21.91l-176.86-47.31l32-103.7l-201.9,93.06
			l101.68,31.82l85.9,72.53l93.06,46.49l238.55,39.98l100.42-18.24l122.53,6.05l164.43,31.54c10.95,1.56,5.27,1.19,16.63,1.19
			l359.4-21.82l91.79-48.51l119.8-76.47l218.12-1.83l155.38,11.55l231.18-20.91l22.1-32.46L2255,1106.07z M852.81,796.98
			l172.63,14.58l94.74-15.77l128.01,2.38l146.32-32.09l-142.12-8.53l-76.64-21.82l-116.84,3.03l-78.11-19.44L852.81,796.98z
			 M1851.28,870.28l-195.05,105.59l-166.97,54.64l-203.38,36.4l-169.91,2.39l-108.64,47.31l-192.22,18.15l-125.27-42.46
			l-211.79-16.96l-59.8-84.26l200.43-127.36l162.96,63.64l22.33,53.36l133.69,15.77l172.64-12.1l117.06,24.3l256.23-34.02
			l29.69-48.41l-146.54-17.06l-82.32-38.42l-154.54-6.51l58.53-41.17l164.23,29.07l78.1,23.01l232.33-104.4l110.72,67.83
			L1851.28,870.28z"/>
		
			<linearGradient id="SVGID_39_" gradientUnits="userSpaceOnUse" x1="357.075" y1="1019.5621" x2="2269.0193" y2="1019.5621" gradientTransform="matrix(-0.9769 0 0 1 2346.5286 0)">
			<stop  offset="0" style="stop-color:#C0DEED"/>
			<stop  offset="1" style="stop-color:#90BBCF"/>
		</linearGradient>
		<path class="st43" d="M317.61,1213.99l-85.9-72.53l-101.68-31.82l201.9-93.06L340.2,1124l176.86,47.31l-106.39,89.17
			L317.61,1213.99z M1895.56,956.2l19.62,60.66l82.53,167.06l-155.38-11.55l-115.59-219.23L1895.56,956.2z M1683.38,1057.75
			l-59.17,116.45l-7.58-120.02L1683.38,1057.75z M1656.23,975.87l-22.12-64.27l-64.21-35.12l-56.63,49.79l-146.54-17.06
			l-82.32-38.42l68.21-18.61l78.1,23.01l82.54,51.07l-24.01,104.25L1656.23,975.87z M1248.2,798.18l4.2-40.62l-76.64-21.82
			l-55.58,60.05L1248.2,798.18z M1058.92,738.76l-33.48,72.8l-172.63-14.58l128-77.66L1058.92,738.76z M781.63,927.37l22.33,53.36
			l133.69,15.77l-122.54,138.27l-125.27-42.46l-19.58-78.76l-52.85-94.63l-139.37,156.42l-59.8-84.26l200.43-127.36L781.63,927.37z
			 M1115.97,1069.31l-5.68-84.91l117.06,24.3L1115.97,1069.31z M1475.16,1136.05l-62.53,163.12l-26.75-71.24l-94.52-48.5
			l-30.53-67.03L1475.16,1136.05z M958.5,1179.06l78.1,140.75l-164.43-31.54l-122.53-6.05l43.16-136.53L958.5,1179.06z"/>
	</g>
</g>
</svg>
